<svg width="40" height="40" viewBox="0 0 40 40" fill="none" xmlns="http://www.w3.org/2000/svg">
<g clip-path="url(#clip0)">
<path d="M37.6562 6.24984H34.7299V5.62507C34.7299 4.10835 34.1334 2.68561 33.0501 1.61874C31.9672 0.552177 30.5351 -0.0202455 29.0178 0.000691982C25.9642 0.0472545 23.4799 2.60327 23.4799 5.69859V6.24984H16.5201V5.62507C16.5201 4.10835 15.9235 2.68561 14.8402 1.61874C13.7574 0.552255 12.3279 -0.0202455 10.808 0.000770107C7.75437 0.0472545 5.27008 2.60335 5.27008 5.69859V6.24984H2.34375C1.05141 6.24984 0 7.30124 0 8.59359V37.6561C0 38.9484 1.05141 39.9998 2.34375 39.9998H37.6562C38.9486 39.9998 40 38.9484 40 37.6561V8.59359C40 7.30124 38.9486 6.24984 37.6562 6.24984ZM25.0424 5.69859C25.0424 3.45187 26.8365 1.59671 29.0416 1.56304C29.0628 1.56272 29.084 1.56257 29.1052 1.56257C30.1771 1.56257 31.1865 1.9764 31.9537 2.73194C32.7363 3.5028 33.1673 4.53022 33.1673 5.62507V6.24984H31.6048V5.66726C31.6048 4.29366 30.5488 3.1778 29.2007 3.12686C28.5144 3.10046 27.8657 3.34874 27.3716 3.8246C26.8772 4.30069 26.6049 4.94015 26.6049 5.62507V8.43734C26.6049 9.34241 27.097 10.1794 27.8891 10.6215C28.1612 10.7734 28.3237 11.0352 28.3237 11.3219C28.3237 11.6013 28.1797 11.8542 27.9384 11.9985C27.8262 12.0655 27.5288 12.2016 27.1882 12.0184C25.8647 11.3066 25.0424 9.93445 25.0424 8.43734V5.69859ZM28.1674 6.24984V5.62507C28.1674 5.36866 28.2698 5.1289 28.4555 4.95007C28.641 4.77148 28.8845 4.67866 29.1417 4.68819C29.6384 4.70702 30.0424 5.14616 30.0424 5.66726V6.24984H28.1674ZM6.83258 5.69859C6.83258 3.45187 8.62664 1.59671 10.8317 1.56304C10.853 1.56272 10.8741 1.56257 10.8953 1.56257C11.9673 1.56257 12.9766 1.9764 13.7438 2.73194C14.5265 3.5028 14.9575 4.53022 14.9575 5.62507V6.24984H13.395V5.66726C13.395 4.29366 12.3389 3.1778 10.9909 3.12686C10.3038 3.10046 9.65586 3.34874 9.1618 3.8246C8.66734 4.30069 8.39508 4.94015 8.39508 5.62507V8.43734C8.39508 9.34241 8.88719 10.1794 9.6793 10.6215C9.95141 10.7734 10.1139 11.0352 10.1139 11.3219C10.1139 11.6013 9.96984 11.8542 9.72852 11.9985C9.61633 12.0655 9.31891 12.2016 8.97836 12.0184C7.65484 11.3066 6.83258 9.93445 6.83258 8.43734V5.69859ZM9.95758 6.24984V5.62507C9.95758 5.36866 10.0599 5.1289 10.2456 4.95007C10.4312 4.77148 10.6746 4.67866 10.9319 4.68819C11.4285 4.70702 11.8326 5.14616 11.8326 5.66726V6.24984H9.95758ZM2.34375 7.81234H5.27008V8.43734C5.27008 10.5105 6.4075 12.41 8.23828 13.3946C8.58406 13.5805 8.95969 13.6732 9.33516 13.6732C9.74695 13.6732 10.1587 13.5617 10.53 13.3398C11.2478 12.9108 11.6763 12.1565 11.6763 11.3219C11.6763 10.4737 11.2029 9.68257 10.4409 9.25718C10.1428 9.09085 9.95758 8.77671 9.95758 8.43741V7.81241H23.4799V8.43741C23.4799 10.5105 24.6173 12.4101 26.4481 13.3947C26.7939 13.5806 27.1695 13.6733 27.545 13.6733C27.9568 13.6733 28.3685 13.5618 28.7398 13.3398C29.4577 12.9109 29.8862 12.1566 29.8862 11.322C29.8862 10.4738 29.4127 9.68265 28.6507 9.25726C28.3527 9.09093 28.1674 8.77679 28.1674 8.43749V7.81249H37.6562C38.087 7.81249 38.4375 8.16296 38.4375 8.59374V16.719H1.5625V8.59359C1.5625 8.1628 1.91297 7.81234 2.34375 7.81234ZM37.6562 38.4373H2.34375C1.91297 38.4373 1.5625 38.0869 1.5625 37.6561V18.2813H38.4375V37.6561C38.4375 38.0869 38.087 38.4373 37.6562 38.4373Z" fill="#F2CB05"/>
<path d="M14.522 25.6319C14.522 24.081 13.2603 22.8194 11.7095 22.8194C10.3685 22.8194 9.20791 23.7733 8.94978 25.0876C8.86666 25.5109 9.14244 25.9216 9.5658 26.0048C9.98916 26.0881 10.3999 25.8122 10.483 25.3888C10.5976 24.8053 11.1134 24.3819 11.7095 24.3819C12.3987 24.3819 12.9595 24.9427 12.9595 25.6319C12.9595 26.3211 12.3987 26.8819 11.7095 26.8819C11.2781 26.8819 10.9282 27.2316 10.9282 27.6631C10.9282 28.0946 11.2781 28.4444 11.7095 28.4444C12.3987 28.4444 12.9595 29.0052 12.9595 29.6944C12.9595 30.3836 12.3987 30.9444 11.7095 30.9444C11.0893 30.9444 10.5571 30.4823 10.4716 29.8699C10.4635 29.8121 10.4595 29.753 10.4595 29.6944C10.4595 29.2629 10.1096 28.9131 9.67822 28.9131C9.24682 28.9131 8.89697 29.2629 8.89697 29.6944C8.89697 29.8248 8.90603 29.9564 8.92408 30.0857C9.11674 31.466 10.3142 32.5069 11.7095 32.5069C13.2603 32.5069 14.522 31.2452 14.522 29.6944C14.522 28.8964 14.1874 28.1755 13.6517 27.6631C14.1874 27.1508 14.522 26.4299 14.522 25.6319Z" fill="#F2CB05"/>
<path d="M27.8744 26.05C27.6135 26.05 27.3875 26.063 27.1841 26.0877L27.4667 24.3819H29.8108C30.2422 24.3819 30.592 24.0321 30.592 23.6006C30.592 23.1691 30.2422 22.8194 29.8108 22.8194H26.8043C26.4221 22.8194 26.0961 23.0959 26.0336 23.4729L25.438 27.0679C25.3898 27.3585 25.5106 27.6508 25.7482 27.8249C25.9857 27.9991 26.3365 28.008 26.5992 27.8748C26.6057 27.8714 26.5613 27.8918 26.5992 27.8748C26.9296 27.726 27.2286 27.6125 27.8745 27.6125C28.3356 27.6125 28.7648 27.797 29.0828 28.132C29.4006 28.4667 29.5625 28.9058 29.5384 29.3683C29.4934 30.2347 28.7779 30.927 27.9093 30.9445C27.0662 30.9602 26.3408 30.3458 26.2245 29.5121C26.1648 29.0848 25.7705 28.7868 25.3428 28.8463C24.9155 28.9059 24.6174 29.3007 24.677 29.728C24.8997 31.3234 26.268 32.5076 27.8748 32.5074C27.8966 32.5074 27.9188 32.5072 27.9408 32.5068C29.6245 32.4729 31.0117 31.1299 31.0989 29.4494C31.1454 28.5548 30.8319 27.7048 30.2161 27.0562C29.6087 26.4168 28.7553 26.05 27.8744 26.05Z" fill="#F2CB05"/>
<path d="M19.5616 26.1944C19.3433 26.1944 19.1301 26.2167 18.9241 26.2591C19.6722 24.9478 20.5775 24.245 20.6024 24.2261C20.9468 23.9682 21.018 23.48 20.761 23.1344C20.5036 22.7881 20.0139 22.7163 19.6679 22.9737C19.5547 23.0579 16.9063 25.0691 16.4447 28.8536C16.419 29.0156 16.4053 29.1815 16.4053 29.3506C16.4053 31.0909 17.8211 32.5069 19.5615 32.5069C21.3019 32.5069 22.7178 31.0909 22.7178 29.3506C22.7179 27.6102 21.302 26.1944 19.5616 26.1944ZM19.5616 30.9444C18.6828 30.9444 17.9679 30.2294 17.9679 29.3506C17.9679 28.4718 18.6828 27.7569 19.5616 27.7569C20.4404 27.7569 21.1554 28.4718 21.1554 29.3506C21.1554 30.2294 20.4404 30.9444 19.5616 30.9444Z" fill="#F2CB05"/>
</g>
<defs>
<clipPath id="clip0">
<rect width="40" height="40" fill="white"/>
</clipPath>
</defs>
</svg>
