<svg width="95" height="93" viewBox="0 0 95 93" fill="none" xmlns="http://www.w3.org/2000/svg">
<g clip-path="url(#clip0)">
<path d="M79.7694 17.7748C78.7034 13.9296 76.1137 10.507 72.255 8.42448C68.5163 6.40684 64.1579 5.93321 59.9829 7.09067C55.8077 8.24816 52.3153 10.8983 50.1491 14.5529L17.2961 69.9806C15.6935 72.6843 15.2639 75.8073 16.0866 78.7746C16.9091 81.7417 18.8854 84.1979 21.6514 85.6905C24.4172 87.1831 27.6414 87.5336 30.7304 86.6772C33.8192 85.8209 36.403 83.8603 38.0055 81.1567L66.3981 33.254C68.5426 29.6358 67.276 25.0671 63.5746 23.0694C59.8731 21.0718 55.1171 22.3903 52.9724 26.0087L32.9986 59.7072C32.4111 60.6984 32.7569 61.9458 33.7709 62.4931C34.785 63.0405 36.0835 62.6805 36.6711 61.6891L56.6446 27.9904C57.6161 26.3516 59.7701 25.7544 61.4468 26.6591C63.1234 27.564 63.6971 29.6332 62.7256 31.2721L34.333 79.1748C33.2988 80.9196 31.6314 82.1848 29.6382 82.7374C27.6448 83.29 25.564 83.0639 23.7792 82.1006C20.0945 80.1121 18.8336 75.5642 20.9685 71.9623L53.8213 16.5347C55.4191 13.839 57.9951 11.8842 61.0749 11.0304C64.1548 10.1766 67.3695 10.526 70.1272 12.0142C75.8199 15.0865 77.7678 22.1131 74.4697 27.6776L49.9693 69.013C49.3818 70.0042 49.7276 71.2516 50.7417 71.7989C51.7557 72.3463 53.0542 71.9863 53.6418 70.9949L78.142 29.6595C80.3777 25.8875 80.8354 21.6199 79.7694 17.7748Z" fill="#5A5A5A"/>
<path d="M53.6417 70.9949C53.0543 71.9863 51.7556 72.3463 50.7416 71.7989C49.7276 71.2517 49.3818 70.0044 49.9693 69.0131L74.4697 27.6778C76.4785 24.2885 76.538 20.3583 74.9937 17.1081C74.9022 16.3836 74.759 15.6677 74.5644 14.9658C73.7434 12.0042 72.0177 9.29411 69.5052 7.25315C70.4492 7.55665 71.3696 7.94671 72.2549 8.42435C76.1138 10.507 78.7035 13.9296 79.7694 17.7746C80.8355 21.6198 80.3777 25.8874 78.1421 29.6595L53.6417 70.9949Z" fill="#444444"/>
</g>
<defs>
<clipPath id="clip0">
<rect width="74.6053" height="77.6646" fill="white" transform="matrix(0.267154 0.963654 0.963654 -0.267154 0 20.7485)"/>
</clipPath>
</defs>
</svg>
