<svg width="87" height="85" viewBox="0 0 87 85" fill="none" xmlns="http://www.w3.org/2000/svg">
<g>
<path d="M79.4016 18.2891C78.8837 14.3326 76.7981 10.5815 73.2685 7.97988C69.8486 5.45927 65.5993 4.38086 61.3034 4.94313C57.0073 5.50543 53.1787 7.64115 50.5227 10.957L10.242 61.2462C8.27706 63.6993 7.41505 66.7315 7.81467 69.7847C8.21427 72.8377 9.82766 75.5461 12.3577 77.4108C14.8877 79.2755 18.0312 80.0733 21.2096 79.6573C24.3878 79.2413 27.2203 77.6613 29.1851 75.2083L63.9971 31.7465C66.6265 28.4636 66.0112 23.7628 62.6255 21.2671C59.2397 18.7716 54.3461 19.4121 51.7164 22.695L27.2268 53.2695C26.5065 54.1688 26.6744 55.4523 27.602 56.136C28.5295 56.8198 29.8656 56.6449 30.586 55.7455L55.0755 25.1708C56.2666 23.6839 58.483 23.3938 60.0166 24.5241C61.5503 25.6544 61.829 27.7835 60.6379 29.2706L25.8259 72.7324C24.5579 74.3154 22.73 75.335 20.679 75.6035C18.6279 75.8719 16.5992 75.3571 14.9666 74.1537C11.5962 71.6696 10.9837 66.99 13.6012 63.722L53.8818 13.4328C55.8408 10.987 58.6649 9.41163 61.8338 8.99686C65.0028 8.58207 68.1371 9.37762 70.6596 11.2368C75.8668 15.0749 76.8129 22.3049 72.7692 27.3535L42.7295 64.8569C42.0092 65.7563 42.1772 67.0397 43.1047 67.7234C44.0323 68.4072 45.3683 68.2323 46.0888 67.3329L76.1283 29.8295C78.8694 26.4071 79.9194 22.2454 79.4016 18.2891V18.2891Z" fill="#5A5A5A"/>
<path d="M46.0887 67.3329C45.3684 68.2323 44.0322 68.4072 43.1046 67.7234C42.1771 67.0398 42.0091 65.7564 42.7295 64.8569L72.7691 27.3537C75.2322 24.2787 75.8407 20.3953 74.7659 16.9612C74.7767 16.231 74.735 15.5021 74.6404 14.7798C74.2416 11.7326 72.9118 8.80777 70.7094 6.43555C71.6017 6.86807 72.4585 7.38299 73.2683 7.97974C76.7981 10.5815 78.8838 14.3326 79.4016 18.2889C79.9194 22.2454 78.8695 26.4071 76.1283 29.8295L46.0887 67.3329Z" fill="#444444"/>
</g>
<defs>
<clipPath id="clip0">
<rect width="74.6053" height="77.6646" fill="white" transform="matrix(0.12978 0.991543 0.991543 -0.12978 0 10.0793)"/>
</clipPath>
</defs>
</svg>
