<svg width="198" height="198" viewBox="0 0 198 198" fill="none" xmlns="http://www.w3.org/2000/svg">
<g>
<path d="M148.269 68.7182C152.654 58.8552 147.344 46.7182 136.626 42.5132C124.43 37.7272 111.967 42.0842 105.184 52.0252C103.504 30.7812 76.7391 21.9972 56.8101 27.9862C32.6321 35.2522 15.7171 67.9322 29.8001 89.5282C7.24411 82.5132 -1.79889 113.687 1.72511 133.505C6.76011 161.815 43.1211 173.783 56.2781 147.722C68.0631 178.496 134.56 182.51 132.367 148.653C137.724 152.639 150.545 154.106 153.356 154.403C171.375 156.306 186.406 147.7 194.21 131.348C207.605 103.286 179.292 57.3352 148.269 68.7182ZM191.86 126.164C188.056 140.487 173.674 151.171 158.974 150.891C153.712 150.791 133.537 149.914 131.891 142.87C131.797 142.469 131.377 142.307 131.016 142.384C129.841 141.265 127.434 142.308 127.809 144.333C131.313 163.228 113.573 168.969 98.0081 168.664C81.1841 168.334 64.3641 159.799 57.8931 143.974C58.1701 143.228 58.4461 142.482 58.6901 141.687C58.7751 141.413 58.5381 141.054 58.2311 141.085C57.4301 141.165 57.0701 141.267 56.7131 141.513C55.9601 140.841 54.6271 141.386 54.8351 142.627C54.8671 142.821 54.9321 143.001 54.9681 143.192C50.0201 148.33 50.0071 154.231 41.6841 157.502C26.0461 163.646 10.4611 151.434 6.42311 136.886C1.16911 117.958 8.45111 81.9492 34.7371 95.7662C36.8331 96.8672 38.6501 93.7922 36.5951 92.5872C35.8201 92.1332 35.0621 91.7322 34.3121 91.3582C19.6331 69.6192 34.7231 40.7562 57.8571 31.7892C67.6511 27.9932 78.9771 29.2462 88.2551 33.7412C99.7181 39.2942 101.695 50.3742 100.955 61.8342C100.833 63.7172 103.735 64.0492 104.196 62.2732C104.515 61.0422 104.668 59.8802 104.845 58.7092C110.422 47.8382 120.706 41.8772 133.24 45.4792C138.135 46.8862 142.267 50.2082 144.633 54.6912C147.933 60.9472 144.246 66.6222 141.495 72.1042C141.48 72.1132 141.466 72.1202 141.452 72.1292C139.278 73.5332 141.295 77.0232 143.486 75.6092C174.198 55.7842 198.677 100.486 191.86 126.164Z" fill="black"/>
</g>
<defs>
<clipPath id="clip0">
<rect width="196.633" height="196.632" fill="white" transform="translate(0.986115 0.986328)"/>
</clipPath>
</defs>
</svg>
