<svg width="115" height="115" viewBox="0 0 115 115" fill="none" xmlns="http://www.w3.org/2000/svg">
<g>
<path d="M103.628 48.8684C109.698 71.5215 96.2511 94.808 73.5953 100.879C50.9381 106.95 27.6509 93.5059 21.5811 70.8529C15.5108 48.1984 28.9562 24.9123 51.6135 18.8413C74.2693 12.7707 97.5578 26.214 103.628 48.8684Z" fill="#F2CB05"/>
<path d="M66.3669 78.0035L58.8975 80.0049C49.3567 82.5613 39.9136 77.2135 37.3991 67.829C37.0917 66.6819 37.7728 65.5043 38.9185 65.1973C40.0656 64.8899 41.2429 65.5696 41.5502 66.7167C43.4412 73.7737 50.5722 77.7879 57.7856 75.8551L65.255 73.8536C72.4684 71.9208 76.6695 65.0007 74.8205 58.1001C74.5131 56.953 75.1928 55.7757 76.34 55.4683C77.4871 55.1609 78.6643 55.8406 78.9717 56.9878C81.4447 66.2172 75.9077 75.447 66.3669 78.0035Z" fill="black"/>
<path d="M43.6352 47.089C43.1052 47.231 42.5197 47.1713 42.0056 46.8745C39.5111 45.4355 36.2376 46.237 34.8594 48.6262C34.2658 49.6544 32.9512 50.0066 31.9231 49.413C30.8953 48.8208 30.5431 47.5062 31.1371 46.4795C33.6826 42.0704 39.6433 40.5489 44.1541 43.1532C45.1819 43.7454 45.5341 45.06 44.9405 46.0881C44.6437 46.6022 44.1665 46.9466 43.6352 47.089Z" fill="black"/>
<path d="M71.8702 39.5235C71.3389 39.6659 70.7534 39.6063 70.2393 39.3095C67.7476 37.8697 64.4727 38.6715 63.0931 41.0612C62.4995 42.0893 61.1863 42.4412 60.1582 41.8476C59.1304 41.2553 58.7782 39.9408 59.3721 38.914C61.9163 34.5053 67.877 32.9838 72.3878 35.5882C73.4156 36.1804 73.7678 37.4949 73.1742 38.5231C72.8774 39.0371 72.4002 39.3815 71.8702 39.5235Z" fill="black"/>
<path d="M66.3665 99.5441C42.6023 105.912 18.0873 91.7603 11.7205 67.9988C5.35361 44.2374 19.5085 19.7245 43.2727 13.3569C67.0383 6.98893 91.5518 21.1407 97.9187 44.9021C104.286 68.6636 90.1321 93.1761 66.3665 99.5441ZM44.385 17.5081C22.9095 23.2624 10.1177 45.4124 15.8717 66.8865C21.6256 88.3607 43.779 101.149 65.2545 95.3942C86.7314 89.6395 99.5215 67.4886 93.7675 46.0144C88.0135 24.5403 65.8619 11.7534 44.385 17.5081Z" fill="black"/>
</g>
<defs>
<clipPath id="clip0">
<rect width="93.7271" height="93.7271" fill="white" transform="translate(0 24.2578) rotate(-15)"/>
</clipPath>
</defs>
</svg>
