<svg width="40" height="40" viewBox="0 0 40 40" fill="none" xmlns="http://www.w3.org/2000/svg">
<path d="M23.8495 14.2784C23.241 14.2784 22.6325 14.4969 22.6325 15.0118V20.3164L20.105 15.4954C19.512 14.3565 19.1844 14.2784 18.3107 14.2784C17.7022 14.2784 17.0938 14.5125 17.0938 15.0273V24.9346C17.0938 25.4339 17.7022 25.6835 18.3107 25.6835C18.9192 25.6835 19.5277 25.4339 19.5277 24.9346V19.6299L22.492 25.0282C22.7885 25.5743 23.2878 25.6835 23.8494 25.6835C24.4579 25.6835 25.0663 25.4339 25.0663 24.9346V15.0117C25.0663 14.4969 24.4579 14.2784 23.8495 14.2784Z" fill="#F2CB05"/>
<path d="M15.2994 16.4003C15.7674 16.4003 16.0327 15.9011 16.0327 15.3238C16.0327 14.8245 15.8142 14.2784 15.2994 14.2784H9.74502C9.21455 14.2784 8.68408 14.528 8.68408 15.0273V24.9346C8.68408 25.4339 9.21455 25.6835 9.74502 25.6835H15.2994C15.8142 25.6835 16.0327 25.1375 16.0327 24.6382C16.0327 24.061 15.7674 23.5617 15.2994 23.5617H11.1181V20.9093H13.4584C13.9733 20.9093 14.1916 20.4101 14.1916 19.9889C14.1916 19.4896 13.9264 19.0371 13.4584 19.0371H11.1181V16.4003H15.2994Z" fill="#F2CB05"/>
<path d="M34.2298 20L39.8488 8.17037C40.0788 7.68631 40.0446 7.11811 39.7583 6.66514C39.4719 6.21217 38.9733 5.93748 38.4374 5.93748H1.5625C0.69953 5.93748 0 6.63701 0 7.49998V32.4999C0 33.3629 0.69953 34.0624 1.5625 34.0624H38.4374C38.9733 34.0624 39.4719 33.7877 39.7582 33.3348C40.0445 32.8818 40.0788 32.3137 39.8488 31.8295L34.2298 20ZM3.12499 30.9374V9.06248H35.9654L31.0885 19.3296C30.8871 19.7538 30.8871 20.2461 31.0885 20.6703L35.9654 30.9374H3.12499Z" fill="#F2CB05"/>
</svg>
