<svg width="315" height="315" viewBox="0 0 315 315" fill="none" xmlns="http://www.w3.org/2000/svg">
<g clip-path="url(#clip0)">
<path d="M203.274 241.906C204.885 242.836 205.437 244.897 204.507 246.508L203.373 248.472C202.443 250.083 200.382 250.636 198.771 249.705C197.159 248.775 196.607 246.714 197.538 245.103L198.671 243.139C199.602 241.528 201.662 240.976 203.274 241.906Z" fill="#FFE000"/>
<path d="M186.525 270.916C188.136 271.846 188.688 273.907 187.758 275.518L186.624 277.482C185.694 279.093 183.633 279.645 182.022 278.715C180.411 277.785 179.858 275.724 180.789 274.113L181.923 272.149C182.853 270.538 184.913 269.985 186.525 270.916Z" fill="#FFE000"/>
<path d="M186.91 248.139C186.164 247.708 185.582 246.993 185.341 246.095L184.753 243.904C184.27 242.107 185.336 240.259 187.133 239.776C188.93 239.294 190.778 240.359 191.26 242.156L191.849 244.347C192.331 246.144 191.266 247.992 189.469 248.475C188.57 248.716 187.658 248.57 186.91 248.139Z" fill="#FFE000"/>
<path d="M199.955 274.526L200.543 276.717C201.026 278.514 199.96 280.362 198.163 280.845C197.264 281.086 196.352 280.94 195.605 280.509C194.859 280.078 194.277 279.363 194.036 278.465L193.447 276.274C192.964 274.477 194.03 272.629 195.827 272.147C197.624 271.664 199.472 272.729 199.955 274.526Z" fill="#FFE000"/>
<path d="M178.828 248.441L180.794 249.576C182.405 250.506 182.957 252.567 182.027 254.178C181.097 255.79 179.036 256.342 177.425 255.411L175.458 254.276C173.847 253.346 173.295 251.285 174.225 249.674C175.156 248.063 177.216 247.51 178.828 248.441Z" fill="#FFE000"/>
<path d="M203.269 266.443C204.2 264.831 206.26 264.279 207.872 265.209L209.838 266.345C211.449 267.275 212.001 269.336 211.071 270.947C210.141 272.558 208.08 273.11 206.469 272.18L204.503 271.045C202.891 270.114 202.339 268.054 203.269 266.443Z" fill="#FFE000"/>
<path d="M176.683 261.091C178.481 260.61 180.328 261.678 180.808 263.475C181.288 265.273 180.221 267.12 178.423 267.6L176.232 268.186C175.334 268.426 174.423 268.28 173.677 267.849C172.93 267.418 172.347 266.701 172.107 265.801C171.627 264.004 172.694 262.157 174.492 261.677L176.683 261.091Z" fill="#FFE000"/>
<path d="M209.064 252.435C210.862 251.955 212.709 253.022 213.189 254.82C213.669 256.617 212.602 258.464 210.804 258.944L208.613 259.53C207.714 259.771 206.804 259.624 206.058 259.193C205.311 258.762 204.728 258.045 204.488 257.146C204.007 255.348 205.075 253.501 206.872 253.021L209.064 252.435Z" fill="#FFE000"/>
<path d="M150.057 22.0402C151.668 22.9705 152.22 25.0311 151.29 26.6425L150.157 28.606C149.226 30.2173 147.166 30.7695 145.554 29.8391C143.943 28.9088 143.391 26.8482 144.321 25.2368L145.455 23.2734C146.385 21.662 148.446 21.1098 150.057 22.0402Z" fill="#FFE000"/>
<path d="M133.308 51.0497C134.92 51.98 135.472 54.0406 134.542 55.652L133.408 57.6159C132.477 59.2272 130.417 59.7794 128.805 58.8491C127.194 57.9187 126.642 55.8581 127.572 54.2467L128.706 52.2829C129.636 50.6715 131.697 50.1194 133.308 51.0497Z" fill="#FFE000"/>
<path d="M133.694 28.2725C132.948 27.8417 132.366 27.1265 132.125 26.2285L131.536 24.0375C131.054 22.2405 132.119 20.3925 133.916 19.9101C135.713 19.4279 137.562 20.4934 138.044 22.29L138.632 24.481C139.115 26.278 138.049 28.126 136.252 28.6084C135.353 28.8503 134.441 28.704 133.694 28.2725Z" fill="#FFE000"/>
<path d="M146.738 54.6604L147.326 56.8514C147.809 58.6485 146.744 60.4967 144.947 60.9791C144.047 61.2208 143.135 61.0745 142.388 60.643C141.642 60.2122 141.06 59.497 140.819 58.5994L140.23 56.4084C139.748 54.6114 140.813 52.7632 142.61 52.2807C144.407 51.7975 146.255 52.8634 146.738 54.6604Z" fill="#FFE000"/>
<path d="M125.611 28.575L127.577 29.7102C129.188 30.6405 129.741 32.7012 128.81 34.3125C127.88 35.9239 125.819 36.4761 124.208 35.5457L122.242 34.4106C120.63 33.4802 120.078 31.4196 121.008 29.8082C121.939 28.1968 123.999 27.6447 125.611 28.575Z" fill="#FFE000"/>
<path d="M150.053 46.5769C150.983 44.9655 153.044 44.4134 154.655 45.3437L156.621 46.4789C158.233 47.4092 158.785 49.4698 157.854 51.0812C156.924 52.6926 154.863 53.2447 153.252 52.3144L151.286 51.1792C149.674 50.2487 149.122 48.1883 150.053 46.5769Z" fill="#FFE000"/>
<path d="M123.467 41.225C125.264 40.7444 127.111 41.8122 127.592 43.6099C128.072 45.4076 127.004 47.2541 125.207 47.7345L123.015 48.3204C122.117 48.5603 121.207 48.4139 120.461 47.9831C119.713 47.5516 119.131 46.835 118.89 45.9352C118.41 44.1376 119.477 42.2911 121.275 41.8107L123.467 41.225Z" fill="#FFE000"/>
<path d="M155.396 39.6642C154.498 39.9045 153.587 39.7581 152.841 39.3273C152.094 38.8961 151.511 38.1792 151.271 37.2797C150.791 35.482 151.858 33.6353 153.656 33.1549L155.847 32.569C157.645 32.0884 159.492 33.1558 159.972 34.9535C160.453 36.7512 159.385 38.5979 157.588 39.0783L155.396 39.6642Z" fill="#FFE000"/>
<path d="M211.929 57.533L198.775 65.5385C198.318 65.8164 197.792 65.9575 197.257 65.9451L181.863 65.5891C179.654 65.538 178.262 67.9488 179.411 69.8362L187.416 82.9901C187.694 83.4467 187.835 83.9732 187.822 84.5076L187.466 99.9018C187.415 102.111 189.826 103.502 191.714 102.354L204.868 94.3486C205.324 94.0707 205.851 93.9297 206.385 93.942L221.779 94.2981C223.988 94.3491 225.38 91.9383 224.231 90.051L216.226 76.8972C215.948 76.4406 215.807 75.9141 215.819 75.3797L216.175 59.9855C216.226 57.7761 213.816 56.3844 211.929 57.533Z" fill="#FCA309"/>
<path d="M181.862 65.5892L197.257 65.9453C197.791 65.9576 198.317 65.8166 198.774 65.5387L211.928 57.533C213.816 56.3844 216.227 57.7763 216.176 59.9851L216.015 66.9175L211.972 69.3785C209.434 70.923 206.507 71.7073 203.537 71.6385C196.286 71.4707 191.715 79.3864 195.487 85.5827C197.031 88.1203 197.815 91.0474 197.747 94.0172L197.637 98.7495L191.714 102.354C189.826 103.503 187.415 102.111 187.467 99.9024L187.823 84.5082C187.835 83.9738 187.694 83.4473 187.416 82.9907L179.41 69.8369C178.262 67.949 179.654 65.5382 181.862 65.5892Z" fill="#FD8E09"/>
<path d="M269.397 136.163L256.244 144.169C255.787 144.447 255.26 144.588 254.726 144.575L239.332 144.219C237.123 144.168 235.731 146.579 236.88 148.467L244.885 161.62C245.162 162.077 245.304 162.604 245.291 163.138L244.935 178.532C244.884 180.741 247.295 182.133 249.182 180.984L262.336 172.979C262.793 172.701 263.319 172.56 263.854 172.572L279.248 172.928C281.457 172.98 282.849 170.569 281.7 168.681L273.695 155.528C273.417 155.071 273.276 154.544 273.288 154.01L273.644 138.616C273.695 136.406 271.284 135.015 269.397 136.163Z" fill="#FCA309"/>
<path d="M239.331 144.22L254.725 144.576C255.26 144.588 255.786 144.447 256.243 144.169L269.397 136.163C271.285 135.015 273.695 136.407 273.644 138.615L273.484 145.548L269.44 148.009C266.903 149.553 263.976 150.337 261.006 150.269C253.754 150.101 249.184 158.017 252.955 164.213C254.499 166.75 255.284 169.677 255.215 172.647L255.105 177.38L249.182 180.985C247.295 182.133 244.884 180.741 244.935 178.533L245.291 163.139C245.304 162.604 245.163 162.078 244.885 161.621L236.879 148.467C235.73 146.579 237.122 144.169 239.331 144.22Z" fill="#FD8E09"/>
<path d="M105.749 63.2723L92.5951 71.2778C92.1385 71.5557 91.612 71.6968 91.0775 71.6844L75.6833 71.3284C73.4746 71.2773 72.0827 73.6882 73.2313 75.5755L81.2367 88.7292C81.5146 89.1858 81.6557 89.7123 81.6434 90.2467L81.2873 105.641C81.2362 107.85 83.6471 109.242 85.5344 108.093L98.6881 100.088C99.1448 99.8097 99.6713 99.6686 100.206 99.6809L115.6 100.037C117.809 100.088 119.201 97.6772 118.052 95.7899L110.046 82.6362C109.769 82.1795 109.628 81.653 109.64 81.1186L109.996 65.7244C110.047 63.5156 107.636 62.1237 105.749 63.2723Z" fill="#FCA309"/>
<path d="M75.6829 71.3286L91.0771 71.6846C91.6115 71.697 92.138 71.5559 92.5946 71.278L105.748 63.2725C107.636 62.1239 110.047 63.5158 109.995 65.7244L109.835 72.6567L105.791 75.1177C103.254 76.6622 100.327 77.4466 97.3567 77.3778C90.105 77.21 85.5349 85.1257 89.3061 91.322C90.8505 93.8595 91.6349 96.7866 91.5661 99.7565L91.4565 104.489L85.5331 108.094C83.6458 109.242 81.2349 107.85 81.2864 105.642L81.6424 90.2477C81.6548 89.7133 81.5137 89.1868 81.2358 88.7302L73.2303 75.5764C72.0824 73.688 73.4743 71.2771 75.6829 71.3286Z" fill="#FD8E09"/>
<path d="M82.2586 246.15C87.3201 236.342 105.28 197.351 109.621 130.51C109.976 125.05 105.202 120.656 99.7939 121.491C95.4321 122.163 92.2946 126.048 92.5682 130.453C93.6598 148.023 94.6733 193.456 81.6125 245.903C81.5121 246.306 82.0684 246.519 82.2586 246.15Z" fill="#FFE000"/>
<path d="M114.34 264.664C124.964 249.113 168.159 188.949 216.199 164.767C220.573 162.565 225.895 164.522 227.772 169.045C229.516 173.248 227.606 178.081 223.451 179.938C207.383 187.122 167.066 208.998 114.886 265.092C114.592 265.408 114.097 265.019 114.34 264.664Z" fill="#FFE000"/>
<path d="M100.54 256.744L180.92 133.109C183.574 129.028 182.262 123.557 178.046 121.123C173.817 118.681 168.405 120.299 166.21 124.662L99.9365 256.398C99.7389 256.791 100.3 257.113 100.54 256.744Z" fill="#FFE000"/>
</g>
<defs>
<clipPath id="clip0">
<rect width="230" height="230" fill="white" transform="matrix(-0.866025 -0.5 -0.5 0.866025 314.372 115)"/>
</clipPath>
</defs>
</svg>
