<svg width="315" height="315" viewBox="0 0 315 315" fill="none" xmlns="http://www.w3.org/2000/svg">
<g clip-path="url(#clip0)">
<path d="M111.098 241.906C109.486 242.836 108.934 244.897 109.865 246.508L110.999 248.472C111.929 250.083 113.989 250.636 115.601 249.705C117.212 248.775 117.764 246.714 116.834 245.103L115.7 243.139C114.77 241.528 112.709 240.976 111.098 241.906Z" fill="#FFE000"/>
<path d="M127.847 270.916C126.235 271.846 125.683 273.907 126.614 275.518L127.747 277.482C128.678 279.093 130.738 279.645 132.35 278.715C133.961 277.785 134.513 275.724 133.583 274.113L132.449 272.149C131.519 270.538 129.458 269.985 127.847 270.916Z" fill="#FFE000"/>
<path d="M127.461 248.139C128.207 247.708 128.789 246.993 129.03 246.095L129.619 243.904C130.102 242.107 129.036 240.259 127.239 239.776C125.442 239.294 123.593 240.359 123.111 242.156L122.523 244.347C122.04 246.144 123.106 247.992 124.903 248.475C125.802 248.716 126.714 248.57 127.461 248.139Z" fill="#FFE000"/>
<path d="M114.417 274.526L113.829 276.717C113.346 278.514 114.412 280.362 116.209 280.845C117.108 281.086 118.02 280.94 118.767 280.509C119.513 280.078 120.095 279.363 120.336 278.465L120.924 276.274C121.407 274.477 120.341 272.629 118.545 272.147C116.748 271.664 114.899 272.729 114.417 274.526Z" fill="#FFE000"/>
<path d="M135.544 248.441L133.578 249.576C131.967 250.506 131.414 252.567 132.345 254.178C133.275 255.79 135.336 256.342 136.947 255.411L138.913 254.276C140.525 253.346 141.077 251.285 140.146 249.674C139.216 248.063 137.155 247.51 135.544 248.441Z" fill="#FFE000"/>
<path d="M111.102 266.443C110.172 264.831 108.111 264.279 106.5 265.209L104.534 266.345C102.922 267.275 102.37 269.336 103.301 270.947C104.231 272.558 106.291 273.11 107.903 272.18L109.869 271.045C111.481 270.114 112.033 268.054 111.102 266.443Z" fill="#FFE000"/>
<path d="M137.688 261.091C135.891 260.61 134.044 261.678 133.564 263.475C133.083 265.273 134.151 267.12 135.948 267.6L138.14 268.186C139.038 268.426 139.948 268.28 140.695 267.849C141.441 267.418 142.025 266.701 142.265 265.801C142.745 264.004 141.678 262.157 139.88 261.677L137.688 261.091Z" fill="#FFE000"/>
<path d="M105.308 252.435C103.51 251.955 101.663 253.022 101.183 254.82C100.703 256.617 101.77 258.464 103.567 258.944L105.759 259.53C106.657 259.771 107.568 259.624 108.314 259.193C109.061 258.762 109.644 258.045 109.884 257.146C110.364 255.348 109.297 253.501 107.499 253.021L105.308 252.435Z" fill="#FFE000"/>
<path d="M164.315 22.0402C162.703 22.9705 162.151 25.0311 163.082 26.6425L164.215 28.606C165.145 30.2173 167.206 30.7695 168.817 29.8391C170.429 28.9088 170.981 26.8482 170.051 25.2368L168.917 23.2734C167.987 21.662 165.926 21.1098 164.315 22.0402Z" fill="#FFE000"/>
<path d="M181.063 51.0497C179.452 51.98 178.9 54.0406 179.83 55.652L180.964 57.6159C181.894 59.2272 183.955 59.7794 185.566 58.8491C187.178 57.9187 187.73 55.8581 186.8 54.2467L185.666 52.2829C184.735 50.6715 182.675 50.1194 181.063 51.0497Z" fill="#FFE000"/>
<path d="M180.678 28.2725C181.424 27.8417 182.006 27.1265 182.247 26.2285L182.835 24.0375C183.318 22.2405 182.252 20.3925 180.456 19.9101C178.658 19.4279 176.81 20.4934 176.328 22.29L175.74 24.481C175.257 26.278 176.323 28.126 178.12 28.6084C179.019 28.8503 179.931 28.704 180.678 28.2725Z" fill="#FFE000"/>
<path d="M167.634 54.6604L167.045 56.8514C166.563 58.6485 167.628 60.4967 169.425 60.9791C170.324 61.2208 171.236 61.0745 171.984 60.643C172.73 60.2122 173.312 59.497 173.553 58.5994L174.141 56.4084C174.624 54.6114 173.559 52.7632 171.762 52.2807C169.965 51.7975 168.117 52.8634 167.634 54.6604Z" fill="#FFE000"/>
<path d="M188.761 28.575L186.795 29.7102C185.183 30.6405 184.631 32.7012 185.562 34.3125C186.492 35.9239 188.553 36.4761 190.164 35.5457L192.13 34.4106C193.741 33.4802 194.294 31.4196 193.363 29.8082C192.433 28.1968 190.372 27.6447 188.761 28.575Z" fill="#FFE000"/>
<path d="M164.319 46.5769C163.389 44.9655 161.328 44.4134 159.717 45.3437L157.751 46.4789C156.139 47.4092 155.587 49.4698 156.517 51.0812C157.448 52.6926 159.508 53.2447 161.12 52.3144L163.086 51.1792C164.698 50.2487 165.249 48.1883 164.319 46.5769Z" fill="#FFE000"/>
<path d="M190.905 41.225C189.107 40.7444 187.261 41.8122 186.78 43.6099C186.3 45.4076 187.367 47.2541 189.165 47.7345L191.357 48.3204C192.255 48.5603 193.165 48.4139 193.911 47.9831C194.659 47.5516 195.241 46.835 195.482 45.9352C195.962 44.1376 194.894 42.2911 193.097 41.8107L190.905 41.225Z" fill="#FFE000"/>
<path d="M158.976 39.6642C159.874 39.9045 160.784 39.7581 161.53 39.3273C162.277 38.8961 162.86 38.1792 163.1 37.2797C163.581 35.482 162.514 33.6353 160.716 33.1549L158.524 32.569C156.727 32.0884 154.88 33.1558 154.4 34.9535C153.919 36.7512 154.986 38.5979 156.784 39.0783L158.976 39.6642Z" fill="#FFE000"/>
<path d="M102.443 57.533L115.597 65.5385C116.053 65.8164 116.58 65.9575 117.114 65.9451L132.509 65.5891C134.717 65.538 136.109 67.9488 134.961 69.8362L126.956 82.9901C126.678 83.4467 126.537 83.9732 126.549 84.5076L126.905 99.9018C126.956 102.111 124.545 103.502 122.658 102.354L109.504 94.3486C109.047 94.0707 108.521 93.9297 107.986 93.942L92.5923 94.2981C90.3835 94.3491 88.9916 91.9383 90.1402 90.051L98.1456 76.8972C98.4235 76.4406 98.5646 75.9141 98.5523 75.3797L98.1962 59.9855C98.1453 57.7761 100.556 56.3844 102.443 57.533Z" fill="#FCA309"/>
<path d="M132.509 65.5892L117.115 65.9453C116.581 65.9576 116.054 65.8166 115.597 65.5387L102.443 57.533C100.556 56.3844 98.1449 57.7763 98.196 59.9851L98.3563 66.9175L102.4 69.3785C104.937 70.923 107.864 71.7073 110.834 71.6385C118.086 71.4707 122.656 79.3864 118.885 85.5827C117.34 88.1203 116.556 91.0474 116.625 94.0172L116.735 98.7495L122.658 102.354C124.545 103.503 126.956 102.111 126.905 99.9024L126.549 84.5082C126.537 83.9738 126.678 83.4473 126.956 82.9907L134.961 69.8369C136.11 67.949 134.718 65.5382 132.509 65.5892Z" fill="#FD8E09"/>
<path d="M44.9743 136.163L58.1281 144.169C58.5847 144.447 59.1112 144.588 59.6456 144.575L75.0398 144.219C77.2486 144.168 78.6405 146.579 77.4919 148.467L69.487 161.62C69.2091 162.077 69.0681 162.604 69.0804 163.138L69.4365 178.532C69.4876 180.741 67.0767 182.133 65.1894 180.984L52.0356 172.979C51.579 172.701 51.0525 172.56 50.5181 172.572L35.1235 172.928C32.9147 172.98 31.5228 170.569 32.6714 168.681L40.6769 155.528C40.9548 155.071 41.0959 154.544 41.0835 154.01L40.7275 138.616C40.6766 136.406 43.0874 135.015 44.9743 136.163Z" fill="#FCA309"/>
<path d="M75.0405 144.22L59.6463 144.576C59.1119 144.588 58.5854 144.447 58.1287 144.169L44.9744 136.163C43.0871 135.015 40.6762 136.407 40.7277 138.615L40.888 145.548L44.9315 148.009C47.469 149.553 50.3961 150.337 53.366 150.269C60.6177 150.101 65.1878 158.017 61.4167 164.213C59.8722 166.75 59.0879 169.677 59.1566 172.647L59.2662 177.38L65.1897 180.985C67.077 182.133 69.4878 180.741 69.4364 178.533L69.0803 163.139C69.068 162.604 69.209 162.078 69.4869 161.621L77.4924 148.467C78.6412 146.579 77.2493 144.169 75.0405 144.22Z" fill="#FD8E09"/>
<path d="M208.623 63.2723L221.777 71.2778C222.233 71.5557 222.76 71.6968 223.294 71.6844L238.688 71.3284C240.897 71.2773 242.289 73.6882 241.14 75.5755L233.135 88.7292C232.857 89.1858 232.716 89.7123 232.728 90.2467L233.084 105.641C233.135 107.85 230.725 109.242 228.837 108.093L215.684 100.088C215.227 99.8097 214.7 99.6686 214.166 99.6809L198.772 100.037C196.563 100.088 195.171 97.6772 196.32 95.7899L204.325 82.6362C204.603 82.1795 204.744 81.653 204.732 81.1186L204.376 65.7244C204.325 63.5156 206.735 62.1237 208.623 63.2723Z" fill="#FCA309"/>
<path d="M238.689 71.3286L223.295 71.6846C222.76 71.697 222.234 71.5559 221.777 71.278L208.623 63.2725C206.736 62.1239 204.325 63.5158 204.377 65.7244L204.537 72.6567L208.58 75.1177C211.118 76.6622 214.045 77.4466 217.015 77.3778C224.267 77.21 228.837 85.1257 225.066 91.322C223.521 93.8595 222.737 96.7866 222.806 99.7565L222.915 104.489L228.839 108.094C230.726 109.242 233.137 107.85 233.085 105.642L232.729 90.2477C232.717 89.7133 232.858 89.1868 233.136 88.7302L241.141 75.5764C242.289 73.688 240.897 71.2771 238.689 71.3286Z" fill="#FD8E09"/>
<path d="M232.113 246.15C227.052 236.342 209.092 197.351 204.75 130.51C204.396 125.05 209.17 120.656 214.578 121.491C218.94 122.163 222.077 126.048 221.803 130.453C220.712 148.023 219.698 193.456 232.759 245.903C232.86 246.306 232.303 246.519 232.113 246.15Z" fill="#FFE000"/>
<path d="M200.031 264.664C189.407 249.113 146.213 188.949 98.1725 164.767C93.7991 162.565 88.4771 164.522 86.5997 169.045C84.8553 173.248 86.7659 178.081 90.9205 179.938C106.989 187.122 147.305 208.998 199.485 265.092C199.78 265.408 200.275 265.019 200.031 264.664Z" fill="#FFE000"/>
<path d="M213.831 256.744L133.451 133.109C130.798 129.028 132.11 123.557 136.326 121.123C140.554 118.681 145.967 120.299 148.161 124.662L214.435 256.398C214.633 256.791 214.071 257.113 213.831 256.744Z" fill="#FFE000"/>
</g>
<defs>
<clipPath id="clip0">
<rect width="230" height="230" fill="white" transform="translate(0 115) rotate(-30)"/>
</clipPath>
</defs>
</svg>
