<svg width="48" height="49" viewBox="0 0 48 49" xmlns="http://www.w3.org/2000/svg">
<path d="M32.5776 15.0154C31.1748 6.19332 27.864 0 24.0122 0C20.1603 0 16.8537 6.19473 15.4454 15.0168L32.5776 15.0154ZM14.7199 24.4993C14.7206 26.611 14.8272 28.7213 15.0393 30.8219H32.974C33.1861 28.7213 33.2927 26.611 33.2934 24.4993C33.2927 22.3876 33.1861 20.2773 32.974 18.1767H15.0393C14.8272 20.2773 14.7206 22.3876 14.7199 24.4993V24.4993ZM46.1484 15.0154C44.7688 11.6764 42.6821 8.69049 40.038 6.27197C37.3939 3.85344 34.258 2.0623 30.8554 1.02707C33.2177 4.3668 34.8476 9.39395 35.6957 15.0154H46.1484ZM17.1579 1.02707C13.7571 2.06295 10.6232 3.85448 7.98123 6.27303C5.33924 8.69159 3.2547 11.6772 1.87727 15.0154H12.3287C13.1712 9.39536 14.797 4.36539 17.1593 1.02707H17.1579ZM47.1837 18.1767H36.0811C36.2849 20.2519 36.4005 22.3749 36.4005 24.4993C36.4005 26.6237 36.2849 28.7467 36.0811 30.8219H47.174C47.7205 28.7606 47.9982 26.6347 48 24.4993C47.9966 22.3646 47.7222 20.2394 47.1837 18.1767V18.1767ZM11.6225 24.4993C11.6225 22.3749 11.7381 20.2519 11.9418 18.1767H0.832409C-0.27747 22.3157 -0.27747 26.6829 0.832409 30.8219H11.9322C11.7381 28.7467 11.6225 26.6237 11.6225 24.4993ZM15.4454 33.9832C16.8495 42.8053 20.159 49 24.0122 49C27.8654 49 31.1707 42.8053 32.579 33.9846L15.4454 33.9832ZM30.8637 47.9715C34.2658 46.935 37.4012 45.1434 40.0454 42.725C42.6895 40.3067 44.7769 37.3214 46.1581 33.9832H35.7039C34.8518 39.6032 33.226 44.6332 30.8637 47.9715ZM1.87452 33.9832C3.25415 37.3222 5.34089 40.3081 7.98498 42.7266C10.6291 45.1452 13.7649 46.9363 17.1675 47.9715C14.8052 44.6318 13.1753 39.6046 12.3273 33.9832H1.87452V33.9832Z" />
</svg>
