<svg width="40" height="40" viewBox="0 0 40 40" fill="none" xmlns="http://www.w3.org/2000/svg">
<g clip-path="url(#clip0)">
<path d="M27.8815 9.72883C25.7726 7.63469 22.9798 6.48422 20.0097 6.48422C19.9827 6.48422 19.9555 6.48438 19.9284 6.48453C16.7158 6.50719 13.6609 7.92563 11.547 10.376C11.2652 10.7027 11.3016 11.196 11.6283 11.4779C11.9551 11.7598 12.4484 11.7232 12.7302 11.3966C14.5497 9.28743 17.1774 8.06649 19.9394 8.04704C19.9629 8.04688 19.986 8.04672 20.0094 8.04672C22.5642 8.04672 24.9667 9.03641 26.7807 10.8377C28.6117 12.6556 29.62 15.0778 29.62 17.658C29.62 20.122 28.6886 22.4651 26.9974 24.2556C25.2218 26.1354 24.1796 28.5148 24.0232 31.0159H22.5V22.7348H22.9948C24.1292 22.7348 25.052 21.8119 25.052 20.6776V20.5734C25.052 19.4389 24.1292 18.5162 22.9948 18.5162C21.8603 18.5162 20.9376 19.4391 20.9376 20.5734V21.1724H19.0627V20.5734C19.0627 19.4389 18.1398 18.5162 17.0055 18.5162H16.8731C15.7387 18.5162 14.816 19.4391 14.816 20.5734V20.6776C14.816 21.812 15.7388 22.7348 16.8731 22.7348H17.5002V31.0158H15.9956C15.8441 28.4869 14.8226 26.1295 13.081 24.319C11.2824 22.449 10.3308 19.988 10.4014 17.3894C10.4131 16.9581 10.0731 16.5989 9.64166 16.5872C9.20845 16.5725 8.85127 16.9156 8.83947 17.347C8.75736 20.3674 9.86369 23.228 11.9548 25.4021C13.5656 27.0768 14.4527 29.3047 14.4527 31.6756V31.797V33.9363C14.4527 35.6073 15.72 36.9873 17.3438 37.1671V37.3438C17.3438 38.8085 18.5353 40 19.9999 40C21.4645 40 22.6561 38.8085 22.6561 37.3438V37.1695C24.2885 36.9977 25.5649 35.6135 25.5649 33.9363V31.7971V31.6759C25.5649 29.3361 26.477 27.0818 28.1331 25.3284C30.0994 23.2468 31.1823 20.5226 31.1823 17.6579C31.1824 14.6583 30.0101 11.8424 27.8815 9.72883ZM22.5 20.5734C22.5 20.3006 22.722 20.0786 22.9948 20.0786C23.2676 20.0786 23.4896 20.3006 23.4896 20.5734V20.6776C23.4896 20.9504 23.2676 21.1724 22.9948 21.1724H22.5V20.5734ZM19.0626 22.7348H20.9375V31.0158H19.0626V22.7348ZM16.873 21.1724C16.6002 21.1724 16.3782 20.9504 16.3782 20.6776V20.5734C16.3782 20.3006 16.6002 20.0786 16.873 20.0786H17.0053C17.2781 20.0786 17.5001 20.3006 17.5001 20.5734V21.1724H16.873ZM21.0938 37.3438C21.0938 37.947 20.6031 38.4376 20 38.4376C19.3969 38.4376 18.9063 37.947 18.9063 37.3438V37.1876H21.0938V37.3438ZM24.0025 33.9363C24.0025 34.8676 23.2449 35.6252 22.3137 35.6252H21.875H18.1251H17.704C16.7727 35.6252 16.0152 34.8676 16.0152 33.9363V32.5783H24.0025V33.9363Z" fill="#F2CB05"/>
<path d="M20 0C19.5686 0 19.2188 0.349844 19.2188 0.78125V3.69875C19.2188 4.13016 19.5685 4.48 20 4.48C20.4314 4.48 20.7812 4.13016 20.7812 3.69875V0.78125C20.7812 0.349844 20.4314 0 20 0Z" fill="#F2CB05"/>
<path d="M36.8765 16.8766H33.959C33.5276 16.8766 33.1777 17.2265 33.1777 17.6579C33.1777 18.0893 33.5276 18.4391 33.959 18.4391H36.8765C37.3079 18.4391 37.6577 18.0893 37.6577 17.6579C37.6577 17.2265 37.308 16.8766 36.8765 16.8766Z" fill="#F2CB05"/>
<path d="M6.04104 16.8766H3.12354C2.69213 16.8766 2.34229 17.2265 2.34229 17.6579C2.34229 18.0893 2.69213 18.4391 3.12354 18.4391H6.04104C6.47244 18.4391 6.82229 18.0893 6.82229 17.6579C6.82229 17.2265 6.47252 16.8766 6.04104 16.8766Z" fill="#F2CB05"/>
<path d="M10.6818 7.23485L8.61889 5.17188C8.31381 4.86696 7.81928 4.8668 7.51396 5.17188C7.20889 5.47696 7.20889 5.97165 7.51396 6.2768L9.57686 8.33977C9.72951 8.49227 9.92943 8.5686 10.1294 8.5686C10.3293 8.5686 10.5292 8.49227 10.6818 8.33977C10.9869 8.03469 10.9869 7.54001 10.6818 7.23485Z" fill="#F2CB05"/>
<path d="M32.4861 5.1718C32.181 4.8668 31.6864 4.8668 31.3813 5.1718L29.3184 7.23477C29.0133 7.53985 29.0133 8.03454 29.3184 8.3397C29.471 8.4922 29.6709 8.56852 29.8708 8.56852C30.0707 8.56852 30.2707 8.4922 30.4232 8.3397L32.4861 6.27673C32.7912 5.97165 32.7912 5.47696 32.4861 5.1718Z" fill="#F2CB05"/>
<path d="M27.3134 14.708C26.728 13.2549 25.7325 12.0184 24.4346 11.1318C23.1196 10.2337 21.5826 9.75999 19.9854 9.75999C19.9665 9.75999 19.9473 9.76007 19.9284 9.76015C19.4969 9.7632 19.1496 10.1155 19.1526 10.5469C19.1557 10.9765 19.5049 11.3227 19.9338 11.3227C19.9356 11.3227 19.9375 11.3227 19.9393 11.3227C19.9549 11.3225 19.9701 11.3225 19.9856 11.3225C22.5869 11.3225 24.8912 12.8766 25.8642 15.2918C25.9868 15.5963 26.2796 15.7814 26.589 15.7814C26.6862 15.7814 26.7851 15.7631 26.8806 15.7245C27.2809 15.5633 27.4746 15.108 27.3134 14.708Z" fill="#F2CB05"/>
<path d="M27.6546 17.1055C27.5093 16.9602 27.3078 16.8766 27.1023 16.8766C26.896 16.8766 26.6944 16.9602 26.5492 17.1055C26.4039 17.2508 26.321 17.4523 26.321 17.6578C26.321 17.8633 26.4039 18.0648 26.5492 18.2101C26.6944 18.3555 26.896 18.4391 27.1023 18.4391C27.3078 18.4391 27.5093 18.3555 27.6546 18.2101C27.7999 18.0648 27.8827 17.8633 27.8827 17.6578C27.8827 17.4523 27.7999 17.2508 27.6546 17.1055Z" fill="#F2CB05"/>
<path d="M10.9822 13.0806C10.837 12.9353 10.6354 12.8525 10.4299 12.8525C10.2245 12.8525 10.0229 12.9352 9.87759 13.0806C9.73228 13.2267 9.64868 13.4275 9.64868 13.6337C9.64868 13.8392 9.7322 14.04 9.87759 14.1861C10.0229 14.3313 10.2245 14.415 10.4299 14.415C10.6354 14.415 10.837 14.3314 10.9822 14.1861C11.1275 14.04 11.2112 13.8392 11.2112 13.6337C11.2112 13.4275 11.1276 13.2267 10.9822 13.0806Z" fill="#F2CB05"/>
</g>
<defs>
<clipPath id="clip0">
<rect width="40" height="40" fill="white"/>
</clipPath>
</defs>
</svg>
