<svg xmlns="http://www.w3.org/2000/svg" width="32.695" height="34.875" viewBox="0 0 32.695 34.875">
  <path id="Icon_metro-calendar" data-name="Icon metro-calendar" d="M13.469,15.006h4.359v4.359H13.469Zm6.539,0h4.359v4.359H20.008Zm6.539,0h4.359v4.359H26.547ZM6.93,28.084h4.359v4.359H6.93Zm6.539,0h4.359v4.359H13.469Zm6.539,0h4.359v4.359H20.008Zm-6.539-6.539h4.359V25.9H13.469Zm6.539,0h4.359V25.9H20.008Zm6.539,0h4.359V25.9H26.547Zm-19.617,0h4.359V25.9H6.93ZM30.907,1.928v2.18H26.547V1.928H11.289v2.18H6.93V1.928H2.571V36.8h32.7V1.928H30.907Zm2.18,32.7H4.75V10.647H33.086Z" transform="translate(-2.571 -1.928)" />
</svg>
