<svg width="47" height="54" viewBox="0 0 47 54" fill="none" xmlns="http://www.w3.org/2000/svg">
<g filter="url(#filter0_d)">
<path d="M23.5 46C24.9777 46 26.3948 45.3942 27.4396 44.3159C28.4845 43.2375 29.0715 41.775 29.0715 40.25H17.9286C17.9286 41.775 18.5156 43.2375 19.5605 44.3159C20.6053 45.3942 22.0224 46 23.5 46ZM42.2509 32.5501C40.5696 30.6846 37.4224 27.8786 37.4224 18.6875C37.4254 15.3892 36.3145 12.1929 34.2808 9.64855C32.2471 7.10422 29.4177 5.37095 26.2796 4.74694V2.875C26.2796 2.49745 26.2075 2.1236 26.0675 1.77479C25.9275 1.42597 25.7223 1.10904 25.4636 0.842068C25.205 0.5751 24.8979 0.363329 24.5599 0.218846C24.2219 0.0743641 23.8597 0 23.4939 0C23.128 0 22.7658 0.0743641 22.4278 0.218846C22.0898 0.363329 21.7827 0.5751 21.5241 0.842068C21.2654 1.10904 21.0602 1.42597 20.9202 1.77479C20.7802 2.1236 20.7082 2.49745 20.7082 2.875V4.74694C17.57 5.37095 14.7407 7.10422 12.7069 9.64855C10.6732 12.1929 9.56233 15.3892 9.56534 18.6875C9.56534 27.8786 6.41812 30.6846 4.73679 32.5501C4.25722 33.078 3.99336 33.7764 4.00013 34.5C4.00045 34.8782 4.07301 35.2526 4.21367 35.6019C4.35432 35.9511 4.5603 36.2683 4.81983 36.5353C5.07936 36.8024 5.38735 37.014 5.72618 37.158C6.06501 37.3021 6.42804 37.3758 6.7945 37.375H40.2056C40.5721 37.3758 40.9351 37.3021 41.2739 37.158C41.6127 37.014 41.9207 36.8024 42.1803 36.5353C42.4398 36.2683 42.6458 35.9511 42.7864 35.6019C42.9271 35.2526 42.9996 34.8782 43 34.5C43.0034 33.7746 42.735 33.076 42.2509 32.5501Z" fill="#F5F5F5"/>
</g>
<defs>
<filter id="filter0_d" x="0" y="0" width="47" height="54" filterUnits="userSpaceOnUse" color-interpolation-filters="sRGB">
<feFlood flood-opacity="0" result="BackgroundImageFix"/>
<feColorMatrix in="SourceAlpha" type="matrix" values="0 0 0 0 0 0 0 0 0 0 0 0 0 0 0 0 0 0 127 0"/>
<feOffset dy="4"/>
<feGaussianBlur stdDeviation="2"/>
<feColorMatrix type="matrix" values="0 0 0 0 0 0 0 0 0 0 0 0 0 0 0 0 0 0 0.25 0"/>
<feBlend mode="normal" in2="BackgroundImageFix" result="effect1_dropShadow"/>
<feBlend mode="normal" in="SourceGraphic" in2="effect1_dropShadow" result="shape"/>
</filter>
</defs>
</svg>
