<svg width="49" height="47" viewBox="0 0 49 47" fill="none" xmlns="http://www.w3.org/2000/svg">
<path d="M49 17.9201L31.3793 16.3926L24.4974 0L17.6142 16.3926L0 17.9201L13.3653 29.6113L9.3557 47L24.4935 37.7815L39.6314 47L35.6205 29.6113L49 17.9201ZM26.5029 34.4288L24.4974 33.2081L22.492 34.4288L15.2155 38.8586L17.142 30.503L17.6724 28.2026L15.9038 26.6555L9.47602 21.0325L17.9467 20.2988L20.2756 20.0964L21.1878 17.924L24.4961 10.0436L27.8044 17.924L28.7231 20.0925L31.052 20.2949L39.524 21.0286L33.0962 26.6516L31.3237 28.2L31.8528 30.4991L33.7781 38.8546L26.5029 34.4288Z" fill="#F5F5F5"/>
</svg>
