<svg width="40" height="40" viewBox="0 0 40 40" fill="none" xmlns="http://www.w3.org/2000/svg">
<g clip-path="url(#clip0)">
<path d="M33.9999 4.001V2.001C33.9999 0.896318 33.1046 0.00100708 31.9999 0.00100708H3.99999C2.89531 0.00100708 2 0.896318 2 2.001V5.001H0.999998C0.447343 5.001 0 5.44834 0 6.00099C0 6.55365 0.447343 7.00099 0.999998 7.00099H2V9.00099H0.999998C0.447343 9.00099 0 9.44833 0 10.001C0 10.5536 0.447343 11.001 0.999998 11.001H2V13.001H0.999998C0.447343 13.001 0 13.4483 0 14.001C0 14.5536 0.447343 15.001 0.999998 15.001H2V17.001H0.999998C0.447343 17.001 0 17.4483 0 18.001C0 18.5536 0.447343 19.001 0.999998 19.001H2V21.001H0.999998C0.447343 21.001 0 21.4483 0 22.001C0 22.5536 0.447343 23.001 0.999998 23.001H2V25.001H0.999998C0.447343 25.001 0 25.4483 0 26.001C0 26.5536 0.447343 27.001 0.999998 27.001H2V29.0009H0.999998C0.447343 29.0009 0 29.4483 0 30.0009C0 30.5536 0.447343 31.0009 0.999998 31.0009H2V33.0009H0.999998C0.447343 33.0009 0 33.4483 0 34.0009C0 34.5536 0.447343 35.0009 0.999998 35.0009H2V38.0009C2 39.1056 2.89531 40.0009 3.99999 40.0009H31.9999C33.1046 40.0009 33.9999 39.1056 33.9999 38.0009V18.6569L31.9999 20.6569V38.0008H3.99999V35.0009H4.99999C5.55265 35.0009 5.99999 34.5535 5.99999 34.0009C5.99999 33.4482 5.55265 33.0009 4.99999 33.0009H3.99999V31.0009H4.99999C5.55265 31.0009 5.99999 30.5535 5.99999 30.0009C5.99999 29.4482 5.55265 29.0009 4.99999 29.0009H3.99999V27.0009H4.99999C5.55265 27.0009 5.99999 26.5535 5.99999 26.0009C5.99999 25.4482 5.55265 25.0009 4.99999 25.0009H3.99999V23.0009H4.99999C5.55265 23.0009 5.99999 22.5535 5.99999 22.0009C5.99999 21.4482 5.55265 21.0009 4.99999 21.0009H3.99999V19.0009H4.99999C5.55265 19.0009 5.99999 18.5535 5.99999 18.0009C5.99999 17.4482 5.55265 17.0009 4.99999 17.0009H3.99999V15.0009H4.99999C5.55265 15.0009 5.99999 14.5536 5.99999 14.0009C5.99999 13.4482 5.55265 13.0009 4.99999 13.0009H3.99999V11.0009H4.99999C5.55265 11.0009 5.99999 10.5536 5.99999 10.0009C5.99999 9.44825 5.55265 9.00091 4.99999 9.00091H3.99999V7.00091H4.99999C5.55265 7.00091 5.99999 6.55357 5.99999 6.00092C5.99999 5.44826 5.55265 5.00092 4.99999 5.00092H3.99999V2.00092H31.9999V4.00092H33.9999V4.001Z" fill="#F2CB05"/>
<path d="M39.4139 7.586L37.4139 5.586C37.0239 5.1953 36.5119 4.99998 35.9999 4.99998C35.4879 4.99998 34.976 5.1953 34.586 5.586L34.1713 5.99998H30C29.7346 5.99998 29.4807 6.10529 29.2926 6.29264L23.2926 12.2926L24.7066 13.7066L30.4139 7.99998H32.1713L16.586 23.586C16.434 23.738 16.3073 23.9133 16.2113 24.106L14.2113 28.106C13.826 28.876 13.9773 29.806 14.586 30.4146C14.97 30.7986 15.482 31.0006 16.0007 31.0006C16.304 31.0006 16.61 30.9313 16.8947 30.7893L20.8947 28.7893C21.0867 28.6933 21.2626 28.5667 21.4147 28.4146L39.4146 10.4147C40.1953 9.63334 40.1953 8.3667 39.4139 7.586ZM16 29L17.5287 25.9427L19.0573 27.4706L16 29ZM20.7073 26.2927L18.7073 24.2927L35.9999 7.00006L37.9999 9.00005L20.7073 26.2927Z" fill="#F2CB05"/>
</g>
<defs>
<clipPath id="clip0">
<rect width="40" height="40" fill="white"/>
</clipPath>
</defs>
</svg>
