<svg width="93" height="93" viewBox="0 0 93 93" fill="none" xmlns="http://www.w3.org/2000/svg">
<g clip-path="url(#clip0)">
<path d="M89.8513 82.9002L82.9008 89.8505C78.7024 94.0493 71.9058 94.0502 67.7061 89.8507L62.9164 85.061C60.0087 82.1531 16.6485 38.793 14.8911 37.0356C13.6427 35.7872 12.6551 34.3324 11.9557 32.712L11.9444 32.6861C11.9442 32.6855 11.9438 32.6848 11.9437 32.6842C10.7661 29.9562 1.7251 9.01047 0.34518 5.81322C-0.334883 4.23768 0.00968942 2.43581 1.22305 1.22244C2.44022 0.00508881 4.24319 -0.333672 5.81402 0.344391L32.685 11.9431C32.6854 11.9432 32.6857 11.9434 32.6861 11.9436L32.7126 11.955C34.3336 12.6549 35.7882 13.6425 37.0364 14.8907L43.918 21.7725C44.4501 22.3046 44.4501 23.167 43.918 23.6992C43.386 24.231 42.5234 24.2312 41.9914 23.699L35.1097 16.8174C34.3216 16.0292 33.4296 15.3724 32.4522 14.8531L28.1983 19.107L70.5698 61.4783L75.1702 56.8779L46.4666 28.1745C45.9346 27.6423 45.9346 26.7798 46.4666 26.2476C46.9985 25.7158 47.8611 25.7158 48.3933 26.2476L89.8512 67.7053C94.0498 71.9043 94.0509 78.7007 89.8513 82.9002ZM16.8178 35.109L56.8785 75.1696L61.4789 70.5692L19.1074 28.1977L14.8535 32.4515C15.3725 33.4288 16.0295 34.3206 16.8178 35.109ZM4.73416 2.84595C3.90334 2.48684 3.31155 2.98726 3.14971 3.14892C2.98805 3.31076 2.48818 3.90273 2.84673 4.73337L5.85561 11.7042L11.705 5.85482L4.73416 2.84595ZM29.7902 13.6614L14.3965 7.01678L7.01739 14.3957L13.662 29.7896L29.7902 13.6614ZM26.2715 21.0334L21.034 26.2709L63.4057 68.6424L68.6432 63.4049L26.2715 21.0334ZM87.9245 69.6321L84.0982 65.8059L73.6384 76.2656C73.1062 76.7975 72.2438 76.7975 71.7116 76.2656C71.1796 75.7334 71.1796 74.871 71.7116 74.3388L82.1714 63.879L77.0969 58.8045L71.5349 64.3665C71.5343 64.3671 71.5338 64.3678 71.5332 64.3684C71.5327 64.3689 71.532 64.3694 71.5314 64.37L64.3708 71.5306C64.3702 71.5312 64.3697 71.5319 64.3691 71.5324C64.3686 71.533 64.3679 71.5335 64.3673 71.5341L58.8053 77.0961L63.8798 82.1706L67.1777 78.8729C67.4436 78.607 67.7923 78.474 68.1409 78.474C68.4895 78.474 68.8382 78.607 69.1043 78.8731C69.6364 79.4051 69.6364 80.2677 69.1042 80.7997L65.8065 84.0972L69.6329 87.9237C72.7662 91.0574 77.84 91.0583 80.974 87.9235L87.9247 80.973C91.0583 77.8403 91.0594 72.7667 87.9245 69.6321Z" fill="black"/>
</g>
<defs>
<clipPath id="clip0">
<rect width="93" height="93" fill="white" transform="matrix(1 0 0 -1 0 93)"/>
</clipPath>
</defs>
</svg>
