<svg width="93" height="93" viewBox="0 0 93 93" fill="none" xmlns="http://www.w3.org/2000/svg">
<g >
<path d="M3.14874 82.9002L10.0992 89.8505C14.2977 94.0493 21.0943 94.0502 25.294 89.8507L30.0837 85.061C32.9914 82.1531 76.3515 38.793 78.1089 37.0356C79.3573 35.7872 80.3449 34.3324 81.0444 32.712L81.0557 32.6861C81.0559 32.6855 81.0562 32.6848 81.0564 32.6842C82.234 29.9562 91.275 9.01047 92.6549 5.81322C93.3349 4.23768 92.9904 2.43581 91.777 1.22244C90.5598 0.00508881 88.7569 -0.333672 87.186 0.344391L60.315 11.9431C60.3147 11.9432 60.3143 11.9434 60.3139 11.9436L60.2874 11.955C58.6665 12.6549 57.2119 13.6425 55.9637 14.8907L49.082 21.7725C48.55 22.3046 48.55 23.167 49.082 23.6992C49.614 24.231 50.4767 24.2312 51.0087 23.699L57.8903 16.8174C58.6785 16.0292 59.5705 15.3724 60.5479 14.8531L64.8017 19.107L22.4303 61.4783L17.8298 56.8779L46.5334 28.1745C47.0654 27.6423 47.0654 26.7798 46.5334 26.2476C46.0016 25.7158 45.139 25.7158 44.6068 26.2476L3.14891 67.7053C-1.04971 71.9043 -1.0508 78.7007 3.14874 82.9002ZM76.1823 35.109L36.1216 75.1696L31.5212 70.5692L73.8927 28.1977L78.1465 32.4515C77.6276 33.4288 76.9706 34.3206 76.1823 35.109ZM88.2659 2.84595C89.0967 2.48684 89.6885 2.98726 89.8503 3.14892C90.012 3.31076 90.5119 3.90273 90.1533 4.73337L87.1444 11.7042L81.2951 5.85482L88.2659 2.84595ZM63.2098 13.6614L78.6035 7.01678L85.9827 14.3957L79.3381 29.7896L63.2098 13.6614ZM66.7286 21.0334L71.966 26.2709L29.5943 68.6424L24.3569 63.4049L66.7286 21.0334ZM5.07558 69.6321L8.90183 65.8059L19.3616 76.2656C19.8938 76.7975 20.7563 76.7975 21.2885 76.2656C21.8205 75.7334 21.8205 74.871 21.2885 74.3388L10.8287 63.879L15.9032 58.8045L21.4652 64.3665C21.4657 64.3671 21.4663 64.3678 21.4668 64.3684C21.4674 64.3689 21.4681 64.3694 21.4687 64.37L28.6293 71.5306C28.6298 71.5312 28.6304 71.5319 28.6309 71.5324C28.6315 71.533 28.6322 71.5335 28.6327 71.5341L34.1948 77.0961L29.1203 82.1706L25.8224 78.8729C25.5565 78.607 25.2077 78.474 24.8591 78.474C24.5106 78.474 24.1618 78.607 23.8957 78.8731C23.3637 79.4051 23.3637 80.2677 23.8959 80.7997L27.1936 84.0972L23.3672 87.9237C20.2339 91.0574 15.1601 91.0583 12.0261 87.9235L5.07539 80.973C1.94173 77.8403 1.94064 72.7667 5.07558 69.6321Z" fill="black"/>
</g>
<defs>
<clipPath id="clip0">
<rect width="93" height="93" fill="white" transform="translate(93 93) rotate(-180)"/>
</clipPath>
</defs>
</svg>
