<svg width="141" height="141" viewBox="0 0 141 141" fill="none" xmlns="http://www.w3.org/2000/svg">
<path d="M122.447 77.9298L135.351 76.7087C138.553 76.4055 141 73.7166 141 70.5C141 67.2834 138.553 64.5945 135.351 64.2913L122.465 63.0719C128.915 60.0608 126.315 50.3461 119.223 50.9591L119.203 50.9608L129.767 43.4514C132.389 41.5878 133.163 38.0359 131.555 35.2503C129.946 32.4647 126.483 31.359 123.558 32.698L111.789 38.0849C115.869 32.2524 108.76 25.1388 102.925 29.2156L102.908 29.2275L108.302 17.4421C109.641 14.5172 108.536 11.0542 105.75 9.4459C102.964 7.83762 99.4124 8.61174 97.5489 11.2335L90.0494 21.7837C90.6669 14.6924 80.9535 12.0863 77.9386 18.5346L77.9298 18.5533L76.7087 5.64964C76.4055 2.44657 73.7166 0 70.5 0C67.2834 0 64.5945 2.44657 64.2913 5.64881L63.0719 18.5352C60.0608 12.0852 50.3461 14.6849 50.9591 21.7768L50.9608 21.7972L43.4511 11.2329C41.5876 8.61119 38.0356 7.83679 35.25 9.44535C32.4644 11.0536 31.3587 14.5169 32.6977 17.4416L38.0846 29.2112C32.2521 25.1308 25.1385 32.2397 29.2154 38.075L29.2272 38.0918L17.4419 32.6974C14.5169 31.3587 11.0539 32.4641 9.44562 35.2497C7.83734 38.0353 8.61146 41.5873 11.2332 43.4509L21.7834 50.9503C14.6921 50.3329 12.0861 60.0462 18.5343 63.0612L18.5531 63.07L5.64936 64.291C2.44657 64.5945 0 67.2834 0 70.5C0 73.7166 2.44657 76.4055 5.64881 76.7087L18.5352 77.9281C12.0852 80.9392 14.6849 90.6539 21.7768 90.0409L21.7972 90.0392L11.2329 97.5489C8.61119 99.4124 7.83679 102.964 9.44535 105.75C11.0536 108.536 14.5169 109.641 17.4416 108.302L29.2112 102.915C25.1308 108.748 32.2397 115.862 38.075 111.785L38.0918 111.773L32.6977 123.558C31.359 126.483 32.4644 129.946 35.25 131.554C38.0356 133.163 41.5876 132.389 43.4511 129.767L50.9506 119.217C50.3331 126.308 60.0464 128.914 63.0614 122.466L63.0702 122.447L64.2913 135.351C64.5945 138.553 67.2834 141 70.5 141C73.7166 141 76.4055 138.553 76.7087 135.351L77.9281 122.465C80.9392 128.915 90.6539 126.315 90.0409 119.223L90.0392 119.203L97.5486 129.767C99.4122 132.389 102.964 133.163 105.75 131.554C108.535 129.946 109.641 126.483 108.302 123.558L102.915 111.788C108.748 115.869 115.861 108.76 111.784 102.925L111.773 102.908L123.558 108.302C126.483 109.641 129.946 108.536 131.554 105.75C133.162 102.964 132.388 99.4124 129.767 97.5489L119.216 90.0494C126.308 90.6669 128.914 80.9535 122.465 77.9386L122.447 77.9298Z" fill="#FFE000"/>
<path d="M70.5 110.218C92.4357 110.218 110.218 92.4358 110.218 70.5C110.218 48.5643 92.4357 30.7818 70.5 30.7818C48.5642 30.7818 30.7818 48.5643 30.7818 70.5C30.7818 92.4358 48.5642 110.218 70.5 110.218Z" fill="#FCEF92"/>
<path d="M48.0394 70.5001C48.0394 51.5278 61.3424 35.6653 79.1288 31.7245C76.3504 31.109 73.4635 30.7816 70.5 30.7816C48.5643 30.7816 30.7818 48.5641 30.7818 70.4998C30.7818 92.4355 48.5643 110.218 70.5 110.218C73.4637 110.218 76.3504 109.891 79.1288 109.275C61.3427 105.335 48.0394 89.4723 48.0394 70.5001V70.5001Z" fill="#EDD03C"/>
<path d="M56.327 65.3786C56.3157 69.0237 52.5957 71.9668 48.0187 71.9525C43.4418 71.9381 39.7405 68.9716 39.7518 65.3268C39.7631 61.6818 43.4828 58.7387 48.0601 58.753C52.6373 58.7673 56.3383 61.7338 56.327 65.3786Z" fill="#FFA1AC"/>
<path d="M84.673 65.4676C84.6617 69.1124 88.3627 72.0789 92.9397 72.0932C97.5167 72.1076 101.236 69.1645 101.248 65.5194C101.259 61.8743 97.5582 58.9081 92.9813 58.8935C88.4043 58.8794 84.6843 61.8225 84.673 65.4676V65.4676Z" fill="#FFA1AC"/>
<path d="M77.1975 60.3731C77.2104 56.2436 74.2202 55.8462 70.53 55.8347C66.8398 55.8231 63.8471 56.2018 63.8341 60.3312C63.8212 64.4605 66.8023 67.8175 70.4925 67.829C74.1828 67.8406 77.1845 64.5026 77.1975 60.3731Z" fill="#495560"/>
<path d="M56.8368 60.2641C56.8346 60.2641 56.8324 60.2641 56.8301 60.2641C55.6895 60.2605 54.7675 59.333 54.7711 58.1923C54.7727 57.6903 54.5786 57.2177 54.225 56.8616C53.8713 56.5055 53.3999 56.3086 52.8978 56.307C52.8959 56.307 52.8937 56.307 52.8918 56.307C51.8582 56.307 51.0158 57.1461 51.0128 58.1802C51.0092 59.3186 50.085 60.2393 48.9474 60.2393C48.9452 60.2393 48.943 60.2393 48.9408 60.2393C47.8001 60.2357 46.8781 59.3082 46.8817 58.1675C46.8921 54.8601 49.5863 52.1764 52.8912 52.1764H52.9105C54.516 52.1816 56.0233 52.8114 57.1548 53.9499C58.2864 55.0886 58.9069 56.6 58.9016 58.2052C58.8983 59.3434 57.9744 60.2641 56.8368 60.2641Z" fill="#495560"/>
<path d="M92.0977 60.3742C92.0955 60.3742 92.0933 60.3742 92.0914 60.3742C90.9507 60.3706 90.0287 59.4431 90.0323 58.3025C90.0356 57.2662 89.1951 56.4204 88.1588 56.4171C88.1569 56.4171 88.1547 56.4171 88.153 56.4171C87.1195 56.4171 86.2771 57.2563 86.2738 58.2906C86.2702 59.4291 85.346 60.3497 84.2083 60.3497C84.2061 60.3497 84.2039 60.3497 84.2017 60.3497C83.061 60.3461 82.139 59.4186 82.1426 58.278C82.1531 54.9705 84.8475 52.2866 88.1525 52.2866H88.1712C91.4852 52.297 94.1728 55.0014 94.1626 58.3154C94.1596 59.4539 93.2353 60.3742 92.0977 60.3742Z" fill="#495560"/>
</svg>
