<svg width="188" height="188" viewBox="0 0 188 188" fill="none" xmlns="http://www.w3.org/2000/svg">
<path d="M24.7367 103.906L7.53175 102.278C3.26208 101.874 0 98.2887 0 94C0 89.7113 3.26208 86.126 7.53175 85.7218L24.7135 84.0958C16.1136 80.081 19.5799 67.1281 29.0357 67.9455L29.0629 67.9477L14.9772 57.9352C11.4816 55.4505 10.4491 50.7145 12.5938 47.0004C14.7382 43.2863 19.3559 41.812 23.2555 43.5973L38.9483 50.7798C33.5077 43.0032 42.9863 33.5183 50.7666 38.9542L50.789 38.97L43.5969 23.2562C41.812 19.3563 43.2859 14.7389 47 12.5945C50.7141 10.4502 55.4501 11.4823 57.9348 14.9779L67.9341 29.0449C67.1109 19.5898 80.0619 16.1151 84.0819 24.7128L84.0936 24.7378L85.7218 7.53285C86.126 3.26209 89.7113 0 94 0C98.2887 0 101.874 3.26209 102.278 7.53175L103.904 24.7136C107.919 16.1137 120.872 19.5799 120.055 29.0357L120.052 29.0629L130.065 14.9772C132.55 11.4816 137.286 10.4491 141 12.5938C144.714 14.7382 146.188 19.3559 144.403 23.2555L137.221 38.9483C144.997 33.5077 154.482 42.9863 149.046 50.7666L149.03 50.789L164.744 43.5965C168.644 41.8116 173.261 43.2855 175.406 46.9996C177.55 50.7137 176.518 55.4497 173.022 57.9345L158.955 67.9337C168.411 67.1105 171.885 80.0616 163.288 84.0815L163.263 84.0933L180.468 85.7214C184.738 86.126 188 89.7113 188 94C188 98.2887 184.738 101.874 180.468 102.278L163.286 103.904C171.886 107.919 168.42 120.872 158.964 120.055L158.937 120.052L173.023 130.065C176.518 132.55 177.551 137.286 175.406 141C173.262 144.714 168.644 146.188 164.745 144.403L149.052 137.221C154.492 144.997 145.014 154.482 137.233 149.046L137.211 149.03L144.403 164.744C146.188 168.644 144.714 173.261 141 175.406C137.286 177.55 132.55 176.518 130.065 173.022L120.066 158.955C120.889 168.411 107.938 171.885 103.918 163.288L103.906 163.263L102.278 180.468C101.874 184.738 98.2887 188 94 188C89.7113 188 86.126 184.738 85.7218 180.468L84.0959 163.286C80.081 171.886 67.1281 168.42 67.9455 158.964L67.9477 158.937L57.9352 173.022C55.4505 176.518 50.7145 177.551 47.0004 175.406C43.2863 173.261 41.812 168.644 43.5973 164.744L50.7798 149.051C43.0032 154.492 33.5183 145.013 38.9542 137.233L38.97 137.211L23.2562 144.403C19.3563 146.188 14.7389 144.714 12.5945 141C10.4501 137.286 11.4823 132.55 14.9779 130.065L29.0449 120.066C19.5898 120.889 16.1151 107.938 24.7128 103.918L24.7367 103.906Z" fill="#FFE000"/>
<path d="M94 146.958C64.7523 146.958 41.0424 123.248 41.0424 94C41.0424 64.7523 64.7523 41.0424 94 41.0424C123.248 41.0424 146.958 64.7523 146.958 94C146.958 123.248 123.248 146.958 94 146.958Z" fill="#FCEF92"/>
<path d="M123.947 94C123.947 68.7037 106.21 47.5537 82.4949 42.2992C86.1995 41.4786 90.0487 41.042 94 41.042C123.248 41.042 146.958 64.752 146.958 93.9996C146.958 123.247 123.248 146.958 94 146.958C90.0484 146.958 86.1995 146.521 82.4949 145.7C106.21 140.446 123.947 119.296 123.947 94Z" fill="#EDD03C"/>
<path d="M112.897 87.1714C112.912 92.0315 117.872 95.9556 123.975 95.9365C130.078 95.9174 135.013 91.9621 134.998 87.1024C134.982 82.2423 130.023 78.3181 123.92 78.3372C117.817 78.3563 112.882 82.3117 112.897 87.1714Z" fill="#FFA1AC"/>
<path d="M75.1026 87.29C75.1177 92.1497 70.183 96.1051 64.0804 96.1241C57.9777 96.1432 53.0181 92.2191 53.0027 87.359C52.9877 82.4989 57.9223 78.5439 64.025 78.5245C70.1276 78.5058 75.0876 82.4299 75.1026 87.29Z" fill="#FFA1AC"/>
<path d="M85.07 80.4974C85.0527 74.9914 89.0397 74.4616 93.96 74.4461C98.8803 74.4307 102.871 74.9356 102.888 80.4416C102.905 85.9472 98.9302 90.4232 94.0099 90.4386C89.0896 90.454 85.0872 86.0034 85.07 80.4974Z" fill="#495560"/>
<path d="M112.218 80.352C112.221 80.352 112.223 80.352 112.226 80.352C113.747 80.3473 114.977 79.1106 114.972 77.5897C114.97 76.9203 115.229 76.2902 115.7 75.8154C116.171 75.3407 116.8 75.0781 117.469 75.0759C117.472 75.0759 117.475 75.0759 117.478 75.0759C118.856 75.0759 119.979 76.1947 119.983 77.5735C119.988 79.0915 121.22 80.319 122.737 80.319C122.74 80.319 122.743 80.319 122.746 80.319C124.267 80.3142 125.496 79.0775 125.491 77.5566C125.477 73.1467 121.885 69.5685 117.478 69.5685H117.453C115.312 69.5755 113.302 70.4152 111.794 71.9332C110.285 73.4515 109.457 75.4666 109.464 77.6069C109.469 79.1245 110.701 80.352 112.218 80.352Z" fill="#495560"/>
<path d="M65.203 80.4989C65.2059 80.4989 65.2088 80.4989 65.2114 80.4989C66.7323 80.4941 67.9617 79.2574 67.9569 77.7365C67.9525 76.3548 69.0731 75.2272 70.4549 75.2228C70.4574 75.2228 70.4604 75.2228 70.4626 75.2228C71.8406 75.2228 72.9638 76.3416 72.9682 77.7207C72.973 79.2387 74.2053 80.4662 75.7222 80.4662C75.7251 80.4662 75.728 80.4662 75.731 80.4662C77.2519 80.4614 78.4812 79.2247 78.4764 77.7039C78.4625 73.2939 74.8699 69.7153 70.4633 69.7153H70.4383C66.0196 69.7293 62.4362 73.3351 62.4498 77.7538C62.4538 79.2717 63.6861 80.4989 65.203 80.4989Z" fill="#495560"/>
</svg>
