<svg width="61" height="61" viewBox="0 0 61 61" fill="none" xmlns="http://www.w3.org/2000/svg">
<path d="M30.0277 0.000282126C23.4365 -0.0428962 17.0009 1.97469 11.6445 5.76353C6.28798 9.55237 2.28599 14.9177 0.212788 21.0895H4.63073C5.08722 19.8868 5.63647 18.7205 6.27366 17.6006H14.7767C14.4052 18.7471 14.0933 19.9116 13.8422 21.0895H18.1498C18.4458 19.9075 18.8083 18.7428 19.2356 17.6006H27.4413V21.0895H31.5994V17.6006H40.4638C40.9398 18.7384 41.3458 19.9035 41.6795 21.0895H45.9871C45.7033 19.9092 45.3564 18.7446 44.9476 17.6006H53.7746C54.4118 18.7205 54.961 19.8868 55.4175 21.0895H59.8265C57.7556 14.9194 53.7564 9.55502 48.4028 5.76619C43.0492 1.97735 36.6165 -0.0411677 30.0277 0.000282126V0.000282126ZM36.3021 4.82527C41.9825 6.09712 47.0959 9.14124 50.8839 13.5061H43.1711C41.4694 10.2032 39.137 7.25567 36.3021 4.82527ZM22.5357 5.12728C19.9703 7.50914 17.8907 10.3532 16.4089 13.5061H9.16971C12.6786 9.46035 17.334 6.54238 22.5375 5.12728H22.5357ZM31.6047 6.44591C34.3112 8.31763 36.596 10.7214 38.3153 13.5061H31.6047V6.44591ZM27.4467 6.474V13.4973H21.1811C22.7275 10.735 24.8657 8.33825 27.4467 6.474V6.474ZM1.45878 25.0611C1.09079 25.0476 0.727598 25.147 0.419262 25.3456C0.29505 25.4182 0.191542 25.5208 0.118392 25.6436C0.0452411 25.7664 0.00484776 25.9055 0.000976562 26.0479C0.0181439 26.3433 0.0842748 26.634 0.196763 26.9083L2.40574 33.1713C2.47338 33.3592 2.54992 33.5699 2.63714 33.7946C2.72233 34.0107 2.84257 34.2118 2.99314 34.3898C3.15137 34.5699 3.35266 34.7081 3.57875 34.7919C3.87553 34.8987 4.19039 34.9482 4.50614 34.9377C4.89053 34.9555 5.27259 34.8699 5.6115 34.6901C5.85243 34.565 6.05473 34.3782 6.19712 34.1493C6.34896 33.8479 6.48502 33.5391 6.60475 33.224L8.58232 27.73L10.551 33.2521C10.7147 33.6612 10.8447 33.9544 10.9497 34.1581C11.0875 34.3869 11.2864 34.574 11.5246 34.6989C11.8681 34.8745 12.2526 34.9569 12.6389 34.9377C13.0351 34.9606 13.43 34.8749 13.7799 34.6901C14.0176 34.5557 14.2134 34.3595 14.3459 34.123C14.491 33.8131 14.6181 33.4953 14.7268 33.1713L16.9358 26.9083C17.0466 26.633 17.1156 26.3431 17.1405 26.0479C17.1364 25.9045 17.0949 25.7646 17.0201 25.6416C16.9453 25.5186 16.8397 25.4167 16.7133 25.3456C16.4075 25.1487 16.0477 25.0494 15.6827 25.0611C15.3548 25.0397 15.0279 25.1162 14.7447 25.2806C14.5555 25.4005 14.4019 25.5677 14.2997 25.7652C14.1995 25.9879 14.1157 26.2173 14.0487 26.4518L12.4894 31.7807L10.745 26.7906C10.6287 26.4789 10.4956 26.1736 10.3463 25.8759C10.2031 25.6431 10.0014 25.4507 9.76067 25.3175C9.39938 25.1264 8.99156 25.0377 8.58232 25.0611C8.17436 25.0407 7.76809 25.1261 7.40396 25.3087C7.14804 25.4427 6.93345 25.6423 6.78275 25.8864C6.62723 26.1782 6.49396 26.481 6.38403 26.7924L4.64854 31.7824L3.08036 26.4166C2.98329 26.0647 2.82292 25.7329 2.60688 25.4369C2.45811 25.2929 2.27804 25.1842 2.08035 25.1191C1.88265 25.054 1.67253 25.0342 1.46591 25.0611H1.45878ZM22.8365 25.0611C22.4685 25.0476 22.1053 25.147 21.797 25.3456C21.6728 25.4182 21.5693 25.5208 21.4961 25.6436C21.423 25.7664 21.3826 25.9055 21.3787 26.0479C21.3999 26.3436 21.469 26.6341 21.5834 26.9083L23.7924 33.1713C23.86 33.3592 23.9365 33.5699 24.0238 33.7946C24.1048 34.0101 24.2208 34.2111 24.3673 34.3898C24.5255 34.5699 24.7268 34.7081 24.9529 34.7919C25.2497 34.8987 25.5645 34.9482 25.8803 34.9377C26.2675 34.9553 26.6524 34.8698 26.9946 34.6901C27.2325 34.5648 27.4313 34.3778 27.5695 34.1493C27.7213 33.8479 27.8574 33.5391 27.9771 33.224L29.9547 27.73L31.9234 33.2521C32.0871 33.6612 32.2171 33.9544 32.3221 34.1581C32.4599 34.3869 32.6587 34.574 32.897 34.6989C33.2404 34.8745 33.625 34.9569 34.0113 34.9377C34.4075 34.9606 34.8024 34.8749 35.1523 34.6901C35.39 34.5557 35.5858 34.3595 35.7183 34.123C35.8633 33.8131 35.9905 33.4953 36.0992 33.1713L38.3082 26.9083C38.419 26.633 38.488 26.3431 38.5129 26.0479C38.5088 25.9045 38.4673 25.7646 38.3925 25.6416C38.3177 25.5186 38.212 25.4167 38.0857 25.3456C37.7799 25.1487 37.4201 25.0494 37.0551 25.0611C36.7271 25.0397 36.4003 25.1162 36.117 25.2806C35.9278 25.4005 35.7743 25.5677 35.672 25.7652C35.5719 25.9879 35.488 26.2173 35.421 26.4518L33.8618 31.7807L32.1174 26.7906C32.0011 26.4789 31.868 26.1736 31.7187 25.8759C31.58 25.6432 31.3817 25.4506 31.1437 25.3175C30.7824 25.1264 30.3746 25.0377 29.9654 25.0611C29.5546 25.041 29.1455 25.1263 28.7781 25.3087C28.5222 25.4427 28.3076 25.6423 28.1569 25.8864C28.0014 26.1782 27.8681 26.481 27.7582 26.7924L26.0227 31.7824L24.4545 26.4166C24.3602 26.0653 24.2029 25.7335 23.9899 25.4369C23.8391 25.2927 23.6572 25.184 23.4577 25.1189C23.2583 25.0539 23.0465 25.0341 22.8383 25.0611H22.8365ZM44.2142 25.0611C43.8462 25.0476 43.483 25.147 43.1747 25.3456C43.0505 25.4182 42.947 25.5208 42.8738 25.6436C42.8007 25.7664 42.7603 25.9055 42.7564 26.0479C42.7776 26.3436 42.8467 26.6341 42.9611 26.9083L45.1701 33.1713C45.2377 33.3592 45.3143 33.5699 45.4015 33.7946C45.4825 34.0101 45.5985 34.2111 45.745 34.3898C45.9032 34.5699 46.1045 34.7081 46.3306 34.7919C46.6274 34.8987 46.9423 34.9482 47.258 34.9377C47.6452 34.9553 48.0301 34.8698 48.3723 34.6901C48.6103 34.5648 48.8091 34.3778 48.9472 34.1493C49.1034 33.8485 49.2431 33.5396 49.3655 33.224L51.3342 27.73L53.3029 33.2521C53.4666 33.6612 53.5966 33.9544 53.7016 34.1581C53.8394 34.3869 54.0382 34.574 54.2765 34.6989C54.6199 34.8745 55.0045 34.9569 55.3908 34.9377C55.787 34.9606 56.1819 34.8749 56.5318 34.6901C56.7696 34.5558 56.9654 34.3596 57.0978 34.123C57.2428 33.8131 57.37 33.4953 57.4787 33.1713L59.6877 26.9083C59.7985 26.633 59.8674 26.3431 59.8924 26.0479C59.89 25.9052 59.8503 25.7655 59.777 25.6424C59.7037 25.5194 59.5993 25.4171 59.4741 25.3456C59.1647 25.1493 58.8023 25.0501 58.4346 25.0611C58.1066 25.0397 57.7798 25.1162 57.4965 25.2806C57.3073 25.4005 57.1538 25.5677 57.0515 25.7652C56.9514 25.9879 56.8675 26.2173 56.8005 26.4518L55.2502 31.7807L53.4951 26.7906C53.3788 26.4789 53.2457 26.1736 53.0964 25.8759C52.9577 25.6432 52.7594 25.4506 52.5214 25.3175C52.1602 25.1264 51.7523 25.0377 51.3431 25.0611C50.9323 25.041 50.5232 25.1263 50.1558 25.3087C49.8999 25.4427 49.6853 25.6423 49.5346 25.8864C49.3791 26.1782 49.2458 26.481 49.1359 26.7924L47.4004 31.7824L45.8411 26.4166C45.7441 26.0647 45.5837 25.7329 45.3677 25.4369C45.2168 25.2927 45.0349 25.184 44.8354 25.1189C44.636 25.0539 44.4243 25.0341 44.216 25.0611H44.2142ZM0.0579322 38.365C2.0777 44.6434 6.07116 50.1245 11.4599 54.0144C16.8486 57.9044 23.3528 60.0012 30.0303 60.0012C36.7079 60.0012 43.2121 57.9044 48.6008 54.0144C53.9895 50.1245 57.983 44.6434 60.0028 38.365H55.6097C55.1942 39.5383 54.6915 40.6798 54.1056 41.7801H45.195C45.572 40.6584 45.891 39.5186 46.1508 38.365H41.9091C41.6197 39.5246 41.257 40.6651 40.8233 41.7801H31.6047V38.365H27.4467V41.7801H19.0273C18.6404 40.659 18.3118 39.5192 18.043 38.365H13.771C14.0095 39.5221 14.305 40.6634 14.6343 41.7801H5.9497C5.36098 40.68 4.85528 39.5385 4.43671 38.365H0.0543742H0.0579322ZM8.68022 45.8817H16.133C17.5245 49.2469 19.6145 52.2876 22.2687 54.8083C16.9137 53.2876 12.1671 50.1695 8.68022 45.8817V45.8817ZM20.7664 45.8817H27.4502V53.5459C24.578 51.6141 22.2717 48.9709 20.7628 45.8817H20.7664ZM31.6083 45.8817H38.755C36.9897 48.8831 34.5435 51.4403 31.6083 53.3527V45.8817ZM43.5343 45.8817H51.3769C47.513 50.6247 42.122 53.9229 36.0975 55.2297C39.234 52.6828 41.7711 49.493 43.5325 45.8817H43.5343Z" fill="#4396B8"/>
</svg>
