<svg width="40" height="40" viewBox="0 0 40 40" fill="none" xmlns="http://www.w3.org/2000/svg">
<g clip-path="url(#clip0)">
<path d="M19.9953 5.45233e-07H19.9287C17.3022 0.000613381 14.7016 0.518536 12.2753 1.5242C9.84906 2.52986 7.64462 4.00356 5.78788 5.86117C2.03803 9.61277 -0.067918 14.7003 -0.0666804 20.0047C-0.0654427 25.309 2.04288 30.3956 5.79448 34.1454C9.54609 37.8953 14.6337 40.0012 19.938 40H20.0047C25.309 39.9988 30.3956 37.8904 34.1454 34.1388C37.8953 30.3872 40.0012 25.2997 40 19.9953C39.9987 14.691 37.8904 9.60442 34.1388 5.85457C30.3872 2.10471 25.2996 -0.00123713 19.9953 5.45233e-07ZM37.318 18.654H29.858C29.7835 16.1869 29.468 13.733 28.916 11.3273C30.5653 10.7969 32.1642 10.1211 33.694 9.308C35.8016 11.9953 37.063 15.2483 37.318 18.654ZM18.6513 18.654H12.7087C12.7725 16.417 13.0559 14.1916 13.5547 12.01C15.2295 12.3867 16.9343 12.6151 18.6493 12.6927L18.6513 18.654ZM18.6513 21.346V27.298C16.9364 27.3762 15.2317 27.6046 13.5567 27.9807C13.0584 25.8021 12.7751 23.5799 12.7107 21.346H18.6513ZM21.3427 21.346H27.2353C27.1716 23.5769 26.8882 25.796 26.3893 27.9713C24.7304 27.5978 23.0415 27.3724 21.3427 27.298V21.346ZM21.3427 18.654V12.692C23.0412 12.6141 24.7298 12.3888 26.3893 12.0187C26.8881 14.1971 27.1715 16.4194 27.2353 18.6533L21.3427 18.654ZM31.8593 7.32067C30.6802 7.90694 29.4593 8.40519 28.2067 8.81133C27.6199 6.94868 26.7615 5.18278 25.6593 3.57067C27.9655 4.37078 30.0775 5.64734 31.858 7.31733L31.8593 7.32067ZM25.6687 9.50333C24.2445 9.81177 22.7978 10.0046 21.3427 10.08V3.01667C22.9753 3.904 24.5713 6.27867 25.6667 9.5L25.6687 9.50333ZM18.6493 2.98067V10.0673C17.1776 9.99336 15.7145 9.79713 14.2753 9.48067C15.3907 6.23067 17.0053 3.856 18.6493 2.98067ZM14.266 3.596C13.176 5.19782 12.3245 6.94943 11.738 8.796C10.5027 8.38893 9.29807 7.89412 8.13332 7.31533C9.89224 5.65677 11.9823 4.38922 14.266 3.596ZM6.29665 9.31733C7.81017 10.124 9.39295 10.7933 11.026 11.3173C10.4638 13.7212 10.1479 16.1761 10.0833 18.644H2.68332C2.93374 15.245 4.19175 11.9979 6.29665 9.31733ZM2.67265 21.346H10.0727C10.1472 23.8134 10.4633 26.2676 11.0167 28.6733C9.38671 29.2057 7.80464 29.8747 6.28732 30.6733C4.18662 27.9901 2.92872 24.7441 2.67265 21.346ZM8.12332 32.6793C9.29073 32.0988 10.4988 31.604 11.738 31.1987C12.3238 33.0511 13.1754 34.8088 14.266 36.4167C11.9829 35.6091 9.89155 34.338 8.12332 32.6833V32.6793ZM14.276 30.506C15.7153 30.1902 17.1783 29.9939 18.65 29.9193V37.0167C16.996 36.144 15.3907 33.7593 14.2753 30.5093L14.276 30.506ZM21.3427 36.9773V29.9107C22.7978 29.9861 24.2445 30.1789 25.6687 30.4873C24.5713 33.7213 22.9753 36.096 21.3413 36.9807L21.3427 36.9773ZM25.6687 36.4293C26.7708 34.8183 27.6294 33.0535 28.2167 31.192C29.4701 31.5996 30.6911 32.101 31.8693 32.692C30.0836 34.3556 27.9713 35.6295 25.6667 36.4327L25.6687 36.4293ZM33.694 30.6833C32.1642 29.8702 30.5653 29.1944 28.916 28.664C29.4686 26.2616 29.7841 23.8107 29.858 21.3467H37.318C37.0657 24.7501 35.8039 28.0009 33.694 30.6833Z" fill="black"/>
</g>
<defs>
<clipPath id="clip0">
<rect width="40" height="40" fill="white"/>
</clipPath>
</defs>
</svg>
