<svg width="66" height="67" viewBox="0 0 66 67" fill="none" xmlns="http://www.w3.org/2000/svg">
<path d="M33.005 16.3189C29.659 16.3189 26.3881 17.3264 23.606 19.2139C20.8239 21.1015 18.6555 23.7843 17.375 26.9231C16.0946 30.062 15.7595 33.5159 16.4123 36.8481C17.0651 40.1803 18.6763 43.2411 21.0423 45.6435C23.4083 48.0458 26.4228 49.6819 29.7045 50.3447C32.9862 51.0075 36.3878 50.6673 39.4791 49.3672C42.5705 48.067 45.2126 45.8653 47.0716 43.0404C48.9305 40.2155 49.9228 36.8943 49.9228 33.4968C49.9263 31.24 49.4912 29.0046 48.6423 26.9188C47.7933 24.8331 46.5473 22.9379 44.9757 21.3421C43.404 19.7463 41.5376 18.4811 39.4834 17.6191C37.4292 16.7571 35.2277 16.3153 33.005 16.3189V16.3189ZM33.005 44.6639C30.8298 44.6639 28.7035 44.0089 26.8949 42.7819C25.0863 41.5548 23.6767 39.8108 22.8443 37.7703C22.0118 35.7298 21.7941 33.4844 22.2184 31.3183C22.6428 29.1521 23.6902 27.1623 25.2283 25.6006C26.7664 24.0388 28.726 22.9753 30.8594 22.5444C32.9928 22.1135 35.2041 22.3346 37.2137 23.1798C39.2233 24.0251 40.941 25.4564 42.1494 27.2928C43.3579 29.1292 44.0029 31.2882 44.0029 33.4968C43.9974 36.4568 42.8369 39.2939 40.7756 41.3869C38.7143 43.4799 35.9201 44.6582 33.005 44.6639V44.6639ZM54.5611 15.6173C54.5611 16.4095 54.3297 17.1839 53.8963 17.8426C53.4629 18.5013 52.8469 19.0147 52.1261 19.318C51.4054 19.6212 50.6122 19.7007 49.847 19.5463C49.0818 19.3919 48.3788 19.0106 47.827 18.4506C47.2751 17.8906 46.8992 17.177 46.7468 16.4001C46.5943 15.6232 46.6721 14.8178 46.9704 14.0858C47.2687 13.3538 47.774 12.728 48.4225 12.2876C49.071 11.8471 49.8336 11.6118 50.6138 11.6114C51.1324 11.61 51.6461 11.7127 52.1255 11.9135C52.6049 12.1142 53.0405 12.4092 53.4073 12.7815C53.774 13.1537 54.0648 13.5958 54.2628 14.0825C54.4608 14.5691 54.5622 15.0907 54.5611 15.6173V15.6173ZM65.7621 19.6911C65.8697 14.4843 63.9554 9.44344 60.4327 5.65795C56.697 2.09329 51.7376 0.151506 46.6121 0.246663C41.1676 -0.0680203 24.834 -0.0680203 19.3895 0.246663C14.2654 0.144318 9.30518 2.0811 5.56885 5.64307C2.05221 9.4324 0.138866 14.4706 0.239519 19.6763C-0.0703995 25.2045 -0.0703995 41.7892 0.239519 47.3174C0.131876 52.5243 2.04621 57.5651 5.56885 61.3506C9.30612 64.9127 14.2645 66.8541 19.3895 66.7619C24.834 67.0766 41.1676 67.0766 46.6121 66.7619C51.7401 66.8712 56.7046 64.9274 60.4327 61.3506C63.9434 57.5575 65.8558 52.5218 65.7621 47.3174C66.072 41.7892 66.072 25.2215 65.7621 19.689V19.6911ZM58.7282 53.2454C58.1682 54.6894 57.3215 56.001 56.2407 57.0984C55.16 58.1958 53.8683 59.0555 52.4461 59.6241C48.103 61.374 37.7878 60.97 32.9966 60.97C28.2054 60.97 17.8755 61.3591 13.5472 59.6241C12.125 59.0555 10.8333 58.1958 9.75249 57.0984C8.67171 56.001 7.82498 54.6894 7.26503 53.2454C5.54163 48.8355 5.9395 38.3617 5.9395 33.4968C5.9395 28.632 5.55629 18.1432 7.26503 13.7483C7.82498 12.3042 8.67171 10.9927 9.75249 9.89529C10.8333 8.79789 12.125 7.93814 13.5472 7.36957C17.8902 5.61968 28.2054 6.02366 32.9966 6.02366C37.7878 6.02366 48.1177 5.63456 52.4461 7.36957C53.8683 7.93814 55.16 8.79789 56.2407 9.89529C57.3215 10.9927 58.1682 12.3042 58.7282 13.7483C60.4516 18.1581 60.0537 28.632 60.0537 33.4968C60.0537 38.3617 60.4495 48.8504 58.7282 53.2454Z" fill="#4396B8"/>
</svg>
